<svg width="38" height="63" viewBox="0 0 38 63" fill="none" xmlns="http://www.w3.org/2000/svg">
<rect x="3" y="31.002" width="32" height="32" rx="16" fill="#1E82F1"/>
<path opacity="0.6" d="M26.5 52.5469C26.5 52.5474 26.5 52.5484 26.4996 52.5504C26.4991 52.5525 26.4981 52.5567 26.4955 52.5632C26.4901 52.5764 26.4778 52.6 26.4506 52.6332C26.3937 52.7027 26.2894 52.793 26.1169 52.8949C25.7714 53.0991 25.2383 53.3003 24.5356 53.476C23.1379 53.8254 21.1806 54.0469 19 54.0469C16.8194 54.0469 14.8621 53.8254 13.4644 53.476C12.7617 53.3003 12.2286 53.0991 11.8831 52.8949C11.7106 52.793 11.6063 52.7027 11.5494 52.6332C11.5222 52.6 11.5099 52.5764 11.5045 52.5632C11.5019 52.5567 11.5009 52.5525 11.5004 52.5504C11.5 52.5484 11.5 52.5474 11.5 52.5469C11.5 52.5464 11.5 52.5453 11.5004 52.5433C11.5009 52.5412 11.5019 52.537 11.5045 52.5306C11.5099 52.5174 11.5222 52.4937 11.5494 52.4605C11.6063 52.3911 11.7106 52.3008 11.8831 52.1988C12.2286 51.9946 12.7617 51.7934 13.4644 51.6177C14.8621 51.2683 16.8194 51.0469 19 51.0469C21.1806 51.0469 23.1379 51.2683 24.5356 51.6177C25.2383 51.7934 25.7714 51.9946 26.1169 52.1988C26.2894 52.3008 26.3937 52.3911 26.4506 52.4605C26.4778 52.4937 26.4901 52.5174 26.4955 52.5306C26.4981 52.537 26.4991 52.5412 26.4996 52.5433C26.5 52.5453 26.5 52.5464 26.5 52.5469Z" fill="white" stroke="white"/>
<path d="M16.8266 51.0001L16.8268 51.0002C17.4376 51.588 18.2189 51.8805 19.0001 51.8805C19.7817 51.8805 20.5619 51.5878 21.165 51.0019L21.1668 51.0001C23.0461 49.1931 24.9775 46.4593 24.2591 43.2911C23.6229 40.4922 21.186 39.2139 19.0001 39.2139H19.0001H19.0001H19.0001H19H19H19H19H19H19H19H19H19H19H19H19H19H19H19H19H19H19H19H19H19H19H19H18.9999H18.9999H18.9999H18.9999H18.9999H18.9999H18.9999H18.9999H18.9999H18.9999H18.9999H18.9999H18.9999H18.9999H18.9999H18.9999H18.9999H18.9999H18.9998H18.9998H18.9998H18.9998H18.9998H18.9998H18.9998H18.9998H18.9998H18.9998H18.9998H18.9998H18.9998H18.9998H18.9998H18.9998H18.9998H18.9998H18.9998H18.9998H18.9998H18.9998H18.9997H18.9997H18.9997H18.9997H18.9997H18.9997H18.9997H18.9997H18.9997H18.9997H18.9997H18.9997H18.9997H18.9997H18.9997H18.9997H18.9997H18.9997H18.9996H18.9996H18.9996H18.9996H18.9996H18.9996H18.9996H18.9996H18.9996H18.9996H18.9996H18.9996H18.9996H18.9996H18.9996H18.9995H18.9995H18.9995H18.9995H18.9995H18.9995H18.9995H18.9995H18.9995H18.9995H18.9995H18.9995H18.9995H18.9995H18.9994H18.9994H18.9994H18.9994H18.9994H18.9994H18.9994H18.9994H18.9994H18.9994H18.9994H18.9994H18.9993H18.9993H18.9993H18.9993H18.9993H18.9993H18.9993H18.9993H18.9993H18.9993H18.9992H18.9992H18.9992H18.9992H18.9992H18.9992H18.9992H18.9992H18.9992H18.9992H18.9991H18.9991H18.9991H18.9991H18.9991H18.9991H18.9991H18.9991H18.9991H18.9991H18.999H18.999H18.999H18.999H18.999H18.999H18.999H18.999H18.9989H18.9989H18.9989H18.9989H18.9989H18.9989H18.9989H18.9989H18.9989H18.9988H18.9988H18.9988H18.9988H18.9988H18.9988H18.9988H18.9987H18.9987H18.9987H18.9987H18.9987H18.9987H18.9987H18.9987H18.9986H18.9986H18.9986H18.9986H18.9986H18.9986H18.9986H18.9985H18.9985H18.9985H18.9985H18.9985H18.9985H18.9985H18.9984H18.9984H18.9984H18.9984H18.9984H18.9984H18.9983H18.9983H18.9983H18.9983H18.9983H18.9983H18.9982H18.9982H18.9982H18.9982H18.9982H18.9982H18.9981H18.9981H18.9981H18.9981H18.9981H18.9981H18.998H18.998H18.998H18.998H18.998H18.998H18.9979H18.9979H18.9979H18.9979H18.9979H18.9978H18.9978H18.9978H18.9978H18.9978H18.9977H18.9977H18.9977H18.9977H18.9977H18.9976H18.9976H18.9976H18.9976H18.9976H18.9975H18.9975H18.9975H18.9975H18.9975H18.9974H18.9974H18.9974H18.9974H18.9974H18.9973H18.9973H18.9973H18.9973H18.9973H18.9972H18.9972H18.9972H18.9972H18.9971H18.9971H18.9971H18.9971H18.997H18.997H18.997H18.997H18.997H18.9969H18.9969H18.9969H18.9969H18.9968H18.9968H18.9968H18.9968H18.9967H18.9967H18.9967H18.9967H18.9966H18.9966H18.9966H18.9966H18.9965H18.9965H18.9965H18.9965H18.9964H18.9964H18.9964H18.9964H18.9963H18.9963H18.9963H18.9963H18.9962H18.9962H18.9962H18.9961H18.9961H18.9961H18.9961H18.996H18.996H18.996H18.9959H18.9959H18.9959H18.9959H18.9958H18.9958H18.9958H18.9957H18.9957H18.9957H18.9957H18.9956H18.9956H18.9956H18.9955H18.9955H18.9955H18.9954H18.9954H18.9954H18.9954H18.9953H18.9953H18.9953H18.9952H18.9952H18.9952H18.9951H18.9951H18.9951H18.995H18.995H18.995H18.9949H18.9949H18.9949H18.9948H18.9948H18.9948H18.9947H18.9947H18.9947H18.9946H18.9946H18.9946H18.9945H18.9945H18.9945H18.9944H18.9944H18.9944H18.9943H18.9943H18.9943H18.9942H18.9942H18.9941H18.9941H18.9941H18.994H18.994H18.994H18.9939H18.9939H18.9939H18.9938H18.9938H18.9937H18.9937H18.9937H18.9936H18.9936H18.9936H18.9935H18.9935H18.9934H18.9934C16.8128 39.2139 14.3703 40.4866 13.7344 43.2844L16.8266 51.0001ZM16.8266 51.0001C14.9477 49.1935 13.016 46.453 13.7343 43.2847L16.8266 51.0001ZM16.4001 44.4205C16.4001 45.8567 17.5639 47.0205 19.0001 47.0205C20.4362 47.0205 21.6001 45.8567 21.6001 44.4205C21.6001 42.9844 20.4362 41.8205 19.0001 41.8205C17.5639 41.8205 16.4001 42.9844 16.4001 44.4205Z" fill="white" stroke="white"/>
<g filter="url(#filter0_d_792_4577)">
<path d="M19.5805 22.6908C19.1863 23.1054 18.5252 23.1054 18.131 22.6908L15.2772 19.689C14.6718 19.0521 15.1232 18 16.002 18H21.7095C22.5883 18 23.0397 19.0521 22.4342 19.689L19.5805 22.6908Z" fill="#1E82F1"/>
</g>
<rect width="38" height="20" rx="4" fill="#1E82F1"/>
<path d="M17.416 5.56V6.616H11.392V9.628H17.512V10.684H14.38V13.12H18.58V14.2H8.908V13.12H13.072V10.684H10.072V5.56H17.416ZM21.6643 5.968V4.744H22.9723V5.968H25.1803V7.024H22.9723V7.084C22.9723 7.708 23.1883 8.284 23.6203 8.812C24.0603 9.332 24.6803 9.7 25.4803 9.916L24.8683 10.948C24.2843 10.78 23.7763 10.524 23.3443 10.18C22.9203 9.828 22.5843 9.416 22.3363 8.944C22.0963 9.456 21.7563 9.9 21.3163 10.276C20.8763 10.652 20.3523 10.936 19.7443 11.128L19.1203 10.108C19.9283 9.868 20.5523 9.472 20.9923 8.92C21.4403 8.368 21.6643 7.756 21.6643 7.084V7.024H19.4563V5.968H21.6643ZM20.4643 11.8H27.5083V15.472H26.1883V12.868H20.4643V11.8ZM26.1883 4.792H27.5083V7.492H28.9963V8.584H27.5083V11.308H26.1883V4.792Z" fill="white"/>
<defs>
<filter id="filter0_d_792_4577" x="13" y="18" width="15.7114" height="13.002" filterUnits="userSpaceOnUse" color-interpolation-filters="sRGB">
<feFlood flood-opacity="0" result="BackgroundImageFix"/>
<feColorMatrix in="SourceAlpha" type="matrix" values="0 0 0 0 0 0 0 0 0 0 0 0 0 0 0 0 0 0 127 0" result="hardAlpha"/>
<feOffset dx="2" dy="4"/>
<feGaussianBlur stdDeviation="2"/>
<feComposite in2="hardAlpha" operator="out"/>
<feColorMatrix type="matrix" values="0 0 0 0 1 0 0 0 0 0.458824 0 0 0 0 0.0705882 0 0 0 0.2 0"/>
<feBlend mode="normal" in2="BackgroundImageFix" result="effect1_dropShadow_792_4577"/>
<feBlend mode="normal" in="SourceGraphic" in2="effect1_dropShadow_792_4577" result="shape"/>
</filter>
</defs>
</svg>
