<svg width="398" height="456" viewBox="0 0 398 456" fill="none" xmlns="http://www.w3.org/2000/svg">
<g clip-path="url(#clip0_1406_9018)" filter="url(#filter0_d_1406_9018)">
<rect width="390" height="448" transform="translate(4)" fill="white"/>
<path d="M4 0H394V448H4V0Z" fill="url(#paint0_linear_1406_9018)"/>
<path d="M333.151 109.15C339.817 97.6042 336.226 82.9512 325.206 75.7413C324.69 75.404 324.028 75.7982 324.049 76.4141L324.135 78.8789C324.714 95.4495 315.306 110.753 300.259 117.718C299.73 117.963 299.7 118.698 300.22 118.962C311.979 124.919 326.48 120.704 333.151 109.15Z" fill="#FFDD02"/>
<g filter="url(#filter1_f_1406_9018)">
<path d="M333.151 108.849C339.817 97.3034 336.226 82.6504 325.206 75.4406C324.69 75.1032 324.028 75.4975 324.049 76.1133L324.135 78.5781C324.714 95.1487 315.306 110.453 300.259 117.417C299.73 117.662 299.7 118.397 300.22 118.661C311.979 124.618 326.48 120.404 333.151 108.849Z" fill="#FFF4AD"/>
</g>
<g filter="url(#filter2_f_1406_9018)">
<path d="M210.82 42.7082C211.506 40.5967 214.494 40.5967 215.18 42.7082C215.486 43.6525 216.366 44.2918 217.359 44.2918C219.579 44.2918 220.502 47.1327 218.706 48.4377C217.903 49.0213 217.567 50.0557 217.874 51C218.56 53.1115 216.143 54.8673 214.347 53.5623C213.544 52.9787 212.456 52.9787 211.653 53.5623C209.857 54.8673 207.44 53.1115 208.126 51C208.433 50.0557 208.097 49.0213 207.294 48.4377C205.498 47.1327 206.421 44.2918 208.641 44.2918C209.634 44.2918 210.514 43.6525 210.82 42.7082Z" fill="#FFEE81"/>
</g>
<path d="M211.098 41.8541C211.697 40.0115 214.303 40.0115 214.902 41.8541L215.245 42.9098C215.513 43.7339 216.281 44.2918 217.147 44.2918H218.257C220.195 44.2918 221 46.771 219.433 47.9098L218.535 48.5623C217.834 49.0716 217.541 49.9743 217.808 50.7984L218.151 51.8541C218.75 53.6967 216.641 55.229 215.074 54.0902L214.176 53.4377C213.475 52.9284 212.525 52.9284 211.824 53.4377L210.926 54.0902C209.359 55.229 207.25 53.6967 207.849 51.8541L208.192 50.7984C208.459 49.9743 208.166 49.0716 207.465 48.5623L206.567 47.9098C205 46.771 205.805 44.2918 207.743 44.2918H208.853C209.719 44.2918 210.487 43.7339 210.755 42.9098L211.098 41.8541Z" fill="#FFEE81"/>
<g filter="url(#filter3_f_1406_9018)">
<path d="M349.82 148.708C350.506 146.597 353.494 146.597 354.18 148.708C354.486 149.652 355.366 150.292 356.359 150.292C358.579 150.292 359.502 153.133 357.706 154.438C356.903 155.021 356.567 156.056 356.874 157C357.56 159.111 355.143 160.867 353.347 159.562C352.544 158.979 351.456 158.979 350.653 159.562C348.857 160.867 346.44 159.111 347.126 157C347.433 156.056 347.097 155.021 346.294 154.438C344.498 153.133 345.421 150.292 347.641 150.292C348.634 150.292 349.514 149.652 349.82 148.708Z" fill="#FFEE81"/>
</g>
<path d="M350.098 147.854C350.697 146.011 353.303 146.011 353.902 147.854L354.245 148.91C354.513 149.734 355.281 150.292 356.147 150.292H357.257C359.195 150.292 360 152.771 358.433 153.91L357.535 154.562C356.834 155.072 356.541 155.974 356.808 156.798L357.151 157.854C357.75 159.697 355.641 161.229 354.074 160.09L353.176 159.438C352.475 158.928 351.525 158.928 350.824 159.438L349.926 160.09C348.359 161.229 346.25 159.697 346.849 157.854L347.192 156.798C347.459 155.974 347.166 155.072 346.465 154.562L345.567 153.91C344 152.771 344.805 150.292 346.743 150.292H347.853C348.719 150.292 349.487 149.734 349.755 148.91L350.098 147.854Z" fill="#FFEE81"/>
<g filter="url(#filter4_f_1406_9018)">
<path d="M247.184 116.59C247.755 114.831 250.245 114.831 250.816 116.59C251.072 117.377 251.805 117.91 252.633 117.91C254.483 117.91 255.252 120.277 253.755 121.365C253.086 121.851 252.806 122.713 253.061 123.5C253.633 125.26 251.619 126.723 250.123 125.635C249.453 125.149 248.547 125.149 247.877 125.635C246.381 126.723 244.367 125.26 244.939 123.5C245.194 122.713 244.914 121.851 244.245 121.365C242.748 120.277 243.517 117.91 245.367 117.91C246.195 117.91 246.928 117.377 247.184 116.59Z" fill="#FFEE81"/>
</g>
<path d="M247.184 116.59C247.755 114.831 250.245 114.831 250.816 116.59C251.072 117.377 251.805 117.91 252.633 117.91C254.483 117.91 255.252 120.277 253.755 121.365C253.086 121.851 252.806 122.713 253.061 123.5C253.633 125.26 251.619 126.723 250.123 125.635C249.453 125.149 248.547 125.149 247.877 125.635C246.381 126.723 244.367 125.26 244.939 123.5C245.194 122.713 244.914 121.851 244.245 121.365C242.748 120.277 243.517 117.91 245.367 117.91C246.195 117.91 246.928 117.377 247.184 116.59Z" fill="#FFEE81"/>
<g filter="url(#filter5_f_1406_9018)">
<path d="M24.1836 51.5902C24.7554 49.8306 27.2446 49.8306 27.8164 51.5902C28.072 52.3771 28.8053 52.9098 29.6327 52.9098C31.4828 52.9098 32.252 55.2773 30.7553 56.3647C30.0859 56.8511 29.8058 57.7131 30.0615 58.5C30.6332 60.2595 28.6193 61.7227 27.1226 60.6353C26.4532 60.1489 25.5468 60.1489 24.8774 60.6353C23.3807 61.7227 21.3668 60.2595 21.9385 58.5C22.1942 57.7131 21.9141 56.8511 21.2447 56.3647C19.748 55.2773 20.5172 52.9098 22.3673 52.9098C23.1947 52.9098 23.928 52.3771 24.1836 51.5902Z" fill="#FFEE81"/>
</g>
<path d="M24.1836 51.5902C24.7554 49.8306 27.2446 49.8306 27.8164 51.5902C28.072 52.3771 28.8053 52.9098 29.6327 52.9098C31.4828 52.9098 32.252 55.2773 30.7553 56.3647C30.0859 56.8511 29.8058 57.7131 30.0615 58.5C30.6332 60.2595 28.6193 61.7227 27.1226 60.6353C26.4532 60.1489 25.5468 60.1489 24.8774 60.6353C23.3807 61.7227 21.3668 60.2595 21.9385 58.5C22.1942 57.7131 21.9141 56.8511 21.2447 56.3647C19.748 55.2773 20.5172 52.9098 22.3673 52.9098C23.1947 52.9098 23.928 52.3771 24.1836 51.5902Z" fill="#FFEE81"/>
<path fill-rule="evenodd" clip-rule="evenodd" d="M92.1308 236C74.8123 236 59.4609 247.145 54.0974 263.612L12.9319 390H4V448H394V390H385.068L343.903 263.612C338.539 247.145 323.188 236 305.869 236H92.1308Z" fill="#FFFCF6"/>
<g clip-path="url(#clip1_1406_9018)">
<path d="M66.6348 282.216C71.8057 265.443 87.3074 254 104.86 254H291.14C308.693 254 324.194 265.443 329.365 282.216L365.887 400.684C369.918 413.758 360.143 427 346.462 427H49.5384C35.8572 427 26.0824 413.758 30.1129 400.684L66.6348 282.216Z" fill="#38A2E7"/>
<path d="M222.53 395.647C224.185 390.494 228.977 387 234.389 387H325.611C331.023 387 335.815 390.494 337.47 395.647L353 444H207L222.53 395.647Z" fill="#FF7512"/>
<path d="M56.53 395.647C58.1849 390.494 62.9774 387 68.3891 387H159.611C165.023 387 169.815 390.494 171.47 395.647L187 444H41L56.53 395.647Z" fill="#FF7512"/>
<rect x="136" y="247.895" width="124" height="20" rx="6.22786" fill="#FFFCF6"/>
<path d="M227.868 412.816L250.435 497.036" stroke="#FF7512" stroke-width="12.4557" stroke-linecap="round"/>
<path fill-rule="evenodd" clip-rule="evenodd" d="M128.143 294.484C111.283 294.484 96.6902 298.546 89.6424 304.459C87.0506 306.037 85.0005 308.477 83.9308 311.47L83.4343 312.859C58.6058 382.32 57.4507 458.042 80.149 528.228C80.9784 530.792 82.5321 532.973 84.5399 534.572C90.6326 541.411 106.397 546.266 124.876 546.237C144.332 546.207 160.762 540.772 166.057 533.342C169.075 530.097 170.426 525.355 168.983 520.644C148.934 455.205 150.166 384.665 172.222 319.875C174.343 313.646 171.526 307.199 166.334 304.205C159.174 298.43 144.759 294.484 128.143 294.484Z" fill="#FFFCF6"/>
<path d="M91.6687 341.013C93.4986 334.75 100.086 331.182 106.331 333.072L113.154 335.137C121.772 337.746 130.958 337.823 139.619 335.359L154.901 331.013C159.476 329.711 163.677 333.99 162.293 338.54C145.425 394.008 144.966 453.172 160.972 508.894L161.471 510.63C163.699 518.388 157.955 526.145 149.885 526.276L108.045 526.954C102.197 527.049 96.9965 523.252 95.3065 517.653L92.4101 508.057C75.98 453.624 75.7224 395.589 91.6687 341.013Z" fill="url(#paint1_linear_1406_9018)"/>
<ellipse cx="127.143" cy="316.484" rx="36" ry="15" fill="url(#paint2_linear_1406_9018)"/>
<path opacity="0.4" d="M128.367 286.057C102.292 285.252 84.4747 293.079 78.9402 302.676C72.2657 316.341 64.8525 343.624 60.2257 368.877C58.4262 378.698 67.9021 380.055 70.3858 379.489C70.3858 379.489 105.261 371.061 110.62 369.901C117.891 368.477 125.742 367.361 130.404 375.43C130.404 375.43 134.639 382.125 137.623 386.898C141.615 393.282 142.849 395.66 147.861 399.375C152.873 403.091 160.961 400.208 163.259 393.022C166.999 365.339 166.989 357.254 176.548 330.976C186.108 304.698 173.732 297.915 164.617 293.059C155.43 288.999 142.469 286.493 128.367 286.057Z" fill="#F2B11A"/>
<circle opacity="0.5" cx="83.215" cy="356.215" r="5" transform="rotate(2.51813 83.215 356.215)" fill="white"/>
<path opacity="0.5" d="M85.7824 341.973C85.7825 334.5 88.9989 322.001 94.0497 313.309" stroke="white" stroke-width="10" stroke-linecap="round"/>
<path d="M98.3242 392.824C96.3483 393.916 92.9528 395.907 88.5865 392.166" stroke="#AE844A" stroke-width="5" stroke-linecap="round"/>
<path d="M77.5879 384.906L84.2843 383.691" stroke="#AE844A" stroke-width="6" stroke-linecap="round"/>
<path d="M104.973 386.082L111.444 388.188" stroke="#AE844A" stroke-width="6" stroke-linecap="round"/>
<ellipse cx="267.608" cy="371.364" rx="63.7476" ry="81.9245" transform="rotate(-17.6004 267.608 371.364)" fill="url(#paint3_linear_1406_9018)"/>
<path fill-rule="evenodd" clip-rule="evenodd" d="M286.815 327.762C316.194 335.026 337.987 361.7 337.987 393.493C337.987 398.438 337.46 403.259 336.459 407.902C336.708 408.864 336.915 409.846 337.079 410.847C339.86 427.822 329.114 443.714 313.075 446.342C312.938 446.364 312.8 446.386 312.662 446.406C301.157 455.651 286.569 461.178 270.698 461.178C233.535 461.178 203.408 430.874 203.408 393.493C203.408 390.368 203.619 387.293 204.026 384.281C203.623 382.244 203.41 380.128 203.41 377.958C203.41 366.682 209.148 356.888 217.572 351.947C222.012 346.211 227.35 341.213 233.374 337.166C239.816 328.397 251.824 322.5 265.573 322.5C273.469 322.5 280.791 324.445 286.815 327.762Z" fill="#FEEFAE"/>
<ellipse cx="253.572" cy="362.188" rx="43.9789" ry="30.4666" transform="rotate(144.981 253.572 362.188)" fill="url(#paint4_radial_1406_9018)"/>
<ellipse cx="22" cy="14.9876" rx="22" ry="14.9876" transform="matrix(0.997403 0.0720167 0.0720167 -0.997403 292.154 422)" fill="url(#paint5_radial_1406_9018)"/>
<path d="M239.668 409.22C239.072 400.964 248.413 393.562 260.531 392.687C272.65 391.812 282.957 397.795 283.553 406.051C284.15 414.307 274.809 421.709 262.69 422.584C250.571 423.459 240.264 417.476 239.668 409.22Z" fill="url(#paint6_radial_1406_9018)"/>
<rect x="218.371" y="316.492" width="3.11393" height="52.6288" rx="1.55697" transform="rotate(-36.0271 218.371 316.492)" fill="url(#paint7_linear_1406_9018)"/>
<path d="M333.072 398.501C332.888 399.912 333.064 403.873 333.099 406.511C333.116 407.833 333.204 409.157 333.393 410.465C334.388 417.354 333.96 424.129 330.072 430C324.313 439.5 318.072 441.5 311.572 442.5C297.072 453.5 289.857 460.329 259.215 456.164C228.572 452 200.47 415.427 208.573 383.001C213.159 347.958 240.949 324.7 275.821 329.264C310.693 333.827 337.658 363.458 333.072 398.501Z" fill="url(#paint8_linear_1406_9018)"/>
<path d="M308.953 401L302.192 399.188" stroke="#AE844A" stroke-width="6" stroke-linecap="round"/>
<path d="M276.953 399L270.192 400.812" stroke="#AE844A" stroke-width="6" stroke-linecap="round"/>
<path d="M286.072 407C286.072 405.895 286.968 405 288.072 405H294.072C295.177 405 296.072 405.895 296.072 407V410C296.072 412.761 293.834 415 291.072 415C288.311 415 286.072 412.761 286.072 410V407Z" stroke="#AE844A" stroke-width="4"/>
<circle cx="242.262" cy="454.734" r="46.2419" transform="rotate(-15 242.262 454.734)" stroke="#FF7512" stroke-width="12.4557"/>
<path d="M230.869 412.816L253.436 497.036" stroke="#FF7512" stroke-width="12.4557" stroke-linecap="round"/>
<g filter="url(#filter6_d_1406_9018)">
<path d="M221.315 396.835C214.56 398.645 210.159 404.869 210.35 411.604C210.405 413.542 212.376 414.663 214.249 414.161L225.173 411.234L236.098 408.307C237.97 407.805 239.117 405.848 238.196 404.143C234.994 398.215 228.071 395.025 221.315 396.835Z" fill="#FEF0B9"/>
<path d="M210.438 411.601C210.247 404.906 214.623 398.719 221.338 396.92C228.053 395.121 234.936 398.291 238.118 404.184C239.006 405.827 237.908 407.731 236.075 408.222L225.151 411.149L214.226 414.077C212.393 414.568 210.491 413.468 210.438 411.601Z" stroke="#FF7755" stroke-opacity="0.0705882" stroke-width="0.175506"/>
</g>
</g>
<rect x="4" y="123.203" width="20.2025" height="8.73418" fill="#F5F6FF"/>
<rect x="4" y="166.875" width="20.2025" height="8.73418" fill="#F5F6FF"/>
<rect x="21" y="97" width="110" height="110" rx="20" fill="#7AC84F"/>
<rect x="28" y="104" width="96" height="96" rx="14" stroke="white" stroke-width="4"/>
<path d="M71.45 132.5H69.25C71.1 134.3 72.25 136.85 72 140.4C71.5 146.75 66.1 150.3 59.7 150.2H57.2C52.2 150.2 42.75 148.85 42.75 139.15C42.75 136.3 43.7 134.15 45.2 132.5H43.9C42.35 132.5 41.1 131.2 41.1 129.6C41.1 128 42.35 126.7 43.9 126.7H53.65V125.1C53.65 123.7 54.25 122.3 57.45 122.3C60.7 122.3 61.25 123.7 61.25 125.1V126.7H71.45C73 126.7 74.3 128 74.3 129.6C74.3 131.2 73 132.5 71.45 132.5ZM64.95 140.8C65.7 136.1 62.4 134.15 58.1 133.9C54.35 133.75 50.05 134.7 49.8 138.5C49.5 143.1 52.85 144.75 57.3 144.75C60.85 144.75 64.45 144.05 64.95 140.8ZM94.5539 139.8L87.7039 146.1C86.2039 147.1 84.8039 149.05 82.7039 149.65C81.5039 149.95 79.9039 149.55 79.1539 148.55C78.1039 147 79.3039 145.25 80.3039 144.05C82.3039 141.75 84.4039 139.65 86.6539 137.65C88.1039 136.4 90.8039 133.1 90.8039 133.1C90.8039 133.1 90.6539 131 90.9039 129.1C91.0539 127.9 91.5539 126.75 92.1039 126.2C92.9539 125.4 94.7039 125.2 95.7539 125.5C97.3039 125.95 97.9039 127.15 98.0539 128.7C98.2039 129.95 97.9539 132.2 98.7039 133.25C99.2539 134.05 99.7039 134.8 100.354 135.5C102.654 138.1 105.054 140.8 107.454 143.3C109.004 144.95 110.804 148.35 108.004 149.7C106.054 150.65 104.204 149.1 102.954 147.75L94.5539 139.8ZM72 156.35C73.7 157.35 73.75 161.1 73.75 161.25V170.55C73.75 172.1 73.75 173.6 73.5 175.2C73.35 176.15 73.15 177.2 72.15 177.7C71.05 178.25 69.3 178.15 68.1 178.1C66.7 178.1 65.25 178.25 63.85 178.25H62.45C61.4 178.25 60.35 178.2 59.3 178.25C56.8 178.35 54.3 178.35 51.8 178.25C50.1 178.15 48.4 178.3 46.65 178.2C45 178.1 43.25 177.5 42.95 175.6C42.3 171.75 42.5 169.5 42.5 165.6V165.55C42.5 165 42.55 164.4 42.55 163.8V162.05C42.55 160.25 42.25 157.45 44.1 156.45C46.15 155.45 48.9 155.4 51.15 155.4H67.45C67.6 155.4 70.65 155.55 72 156.35ZM52.75 171.85C53.2 171.8 53.6 171.85 54 171.85H60.1C61.8 171.85 62.7 172 64.3 171.85C64.95 171.75 65.55 171.9 66.15 171.65C67.05 171.25 66.8 169 66.8 168.2V166.45V166.3V166.15C66.75 165.95 66.8 165.7 66.8 165.5C66.75 164.65 66.95 163.8 66.55 163.1C66.1 162.4 64.6 162.45 63.65 162.45H53.8C53.75 162.45 51.55 162.55 50.45 162.7C49.15 162.85 49 163.85 49 164.25V166.2C49 166.5 49 166.8 48.95 167.15C48.9 168.3 48.95 169.5 49.1 170.65C49.35 172.25 51.6 171.9 52.75 171.85ZM84.2039 154.8L106.754 154.7C109.154 154.7 111.154 155.15 111.154 157.4C111.354 160.75 108.804 160.75 106.554 160.6L99.0539 160.7L99.1039 163.6C99.1039 164.15 99.0039 164.95 99.1039 165.5C99.3039 166.25 99.9539 166.65 100.404 167.2C102.354 169.45 105.054 171.05 107.604 173.25C108.854 174.55 110.854 176.45 109.854 178.4C108.754 180.5 105.804 179.8 104.154 178.75C100.954 176.7 98.3039 174.35 95.6039 171.8C95.4539 171.7 91.1539 175.3 89.2539 176.8C87.1039 178.45 83.0539 182.5 80.5539 179.05C78.8539 176.4 81.4539 174.55 83.4039 173.25C86.0039 171.5 88.6539 169 90.9039 166.75C91.8039 165.85 91.5539 165.1 91.5539 163.85V160.6H83.6539C83.6539 160.6 79.2039 161.05 78.9539 158C78.7539 155.8 80.1039 155 81.7539 154.85C82.2039 154.8 83.6039 154.8 84.2039 154.8Z" fill="white"/>
<circle cx="40" cy="116" r="3" fill="white"/>
<circle cx="112" cy="116" r="3" fill="white"/>
<circle cx="40" cy="188" r="3" fill="white"/>
<circle cx="112" cy="188" r="3" fill="white"/>
<path opacity="0.5" fill-rule="evenodd" clip-rule="evenodd" d="M319.317 302.633C346.16 302.055 369.329 288.867 381.491 269.736C387.016 269.38 392.664 268.07 398.163 265.719C421.004 255.951 432.625 231.907 424.118 212.016C415.704 192.342 390.753 184.1 368.108 193.373C354.741 182.328 336.529 175.721 316.592 176.151C287.196 176.784 262.206 192.54 251.252 214.663C238.71 211.55 224.591 213.391 212.762 220.783C191.77 233.902 185.941 259.539 199.742 278.045C213.544 296.551 241.75 300.918 262.742 287.798C264.255 286.853 265.689 285.843 267.043 284.775C280.475 296.201 299 303.071 319.317 302.633Z" fill="url(#paint9_linear_1406_9018)"/>
<path opacity="0.5" fill-rule="evenodd" clip-rule="evenodd" d="M57.1387 139.748C62.084 139.616 66.8145 138.761 71.1994 137.303C76.2103 142.382 83.7231 145.512 92.0396 145.29C106.714 144.899 118.334 134.222 117.993 121.443C117.718 111.141 109.754 102.617 98.9874 99.9053C97.6467 79.9088 78.3306 64.3998 55.1466 65.0178C44.0183 65.3145 33.9778 69.2741 26.5145 75.528C20.1433 70.231 11.248 67.6332 2.41083 69.2512C-11.9776 71.8857 -20.763 84.6988 -17.212 97.8702C-13.661 111.041 0.881733 119.583 15.2701 116.949C15.6421 116.881 16.0103 116.806 16.3746 116.724C22.8968 130.645 38.8089 140.237 57.1387 139.748Z" fill="url(#paint10_linear_1406_9018)"/>
</g>
<defs>
<filter id="filter0_d_1406_9018" x="0" y="0" width="398" height="456" filterUnits="userSpaceOnUse" color-interpolation-filters="sRGB">
<feFlood flood-opacity="0" result="BackgroundImageFix"/>
<feColorMatrix in="SourceAlpha" type="matrix" values="0 0 0 0 0 0 0 0 0 0 0 0 0 0 0 0 0 0 127 0" result="hardAlpha"/>
<feOffset dy="4"/>
<feGaussianBlur stdDeviation="2"/>
<feComposite in2="hardAlpha" operator="out"/>
<feColorMatrix type="matrix" values="0 0 0 0 0 0 0 0 0 0 0 0 0 0 0 0 0 0 0.25 0"/>
<feBlend mode="normal" in2="BackgroundImageFix" result="effect1_dropShadow_1406_9018"/>
<feBlend mode="normal" in="SourceGraphic" in2="effect1_dropShadow_1406_9018" result="shape"/>
</filter>
<filter id="filter1_f_1406_9018" x="266.046" y="41.5169" width="104.259" height="113.637" filterUnits="userSpaceOnUse" color-interpolation-filters="sRGB">
<feFlood flood-opacity="0" result="BackgroundImageFix"/>
<feBlend mode="normal" in="SourceGraphic" in2="BackgroundImageFix" result="shape"/>
<feGaussianBlur stdDeviation="16.9" result="effect1_foregroundBlur_1406_9018"/>
</filter>
<filter id="filter2_f_1406_9018" x="199.245" y="34.0245" width="27.5105" height="27.0857" filterUnits="userSpaceOnUse" color-interpolation-filters="sRGB">
<feFlood flood-opacity="0" result="BackgroundImageFix"/>
<feBlend mode="normal" in="SourceGraphic" in2="BackgroundImageFix" result="shape"/>
<feGaussianBlur stdDeviation="3.55" result="effect1_foregroundBlur_1406_9018"/>
</filter>
<filter id="filter3_f_1406_9018" x="338.245" y="140.025" width="27.5105" height="27.0857" filterUnits="userSpaceOnUse" color-interpolation-filters="sRGB">
<feFlood flood-opacity="0" result="BackgroundImageFix"/>
<feBlend mode="normal" in="SourceGraphic" in2="BackgroundImageFix" result="shape"/>
<feGaussianBlur stdDeviation="3.55" result="effect1_foregroundBlur_1406_9018"/>
</filter>
<filter id="filter4_f_1406_9018" x="236.354" y="108.171" width="25.2928" height="24.9383" filterUnits="userSpaceOnUse" color-interpolation-filters="sRGB">
<feFlood flood-opacity="0" result="BackgroundImageFix"/>
<feBlend mode="normal" in="SourceGraphic" in2="BackgroundImageFix" result="shape"/>
<feGaussianBlur stdDeviation="3.55" result="effect1_foregroundBlur_1406_9018"/>
</filter>
<filter id="filter5_f_1406_9018" x="13.3536" y="43.1705" width="25.2928" height="24.9383" filterUnits="userSpaceOnUse" color-interpolation-filters="sRGB">
<feFlood flood-opacity="0" result="BackgroundImageFix"/>
<feBlend mode="normal" in="SourceGraphic" in2="BackgroundImageFix" result="shape"/>
<feGaussianBlur stdDeviation="3.55" result="effect1_foregroundBlur_1406_9018"/>
</filter>
<filter id="filter6_d_1406_9018" x="200.044" y="381.03" width="56.7758" height="46.5512" filterUnits="userSpaceOnUse" color-interpolation-filters="sRGB">
<feFlood flood-opacity="0" result="BackgroundImageFix"/>
<feColorMatrix in="SourceAlpha" type="matrix" values="0 0 0 0 0 0 0 0 0 0 0 0 0 0 0 0 0 0 127 0" result="hardAlpha"/>
<feOffset dx="4" dy="-1"/>
<feGaussianBlur stdDeviation="7.15"/>
<feComposite in2="hardAlpha" operator="out"/>
<feColorMatrix type="matrix" values="0 0 0 0 0.861881 0 0 0 0 0.671302 0 0 0 0 0.112266 0 0 0 0.8 0"/>
<feBlend mode="normal" in2="BackgroundImageFix" result="effect1_dropShadow_1406_9018"/>
<feBlend mode="normal" in="SourceGraphic" in2="effect1_dropShadow_1406_9018" result="shape"/>
</filter>
<linearGradient id="paint0_linear_1406_9018" x1="199" y1="0" x2="199" y2="309.138" gradientUnits="userSpaceOnUse">
<stop stop-color="#154AAF"/>
<stop offset="1" stop-color="#52B3E0"/>
</linearGradient>
<linearGradient id="paint1_linear_1406_9018" x1="182.999" y1="349" x2="99.1901" y2="360.077" gradientUnits="userSpaceOnUse">
<stop offset="0.0428684" stop-color="#F9E8BB"/>
<stop offset="1" stop-color="#FFFCF6"/>
</linearGradient>
<linearGradient id="paint2_linear_1406_9018" x1="127.143" y1="301.484" x2="127.143" y2="331.484" gradientUnits="userSpaceOnUse">
<stop stop-color="#FFFCF6"/>
<stop offset="1" stop-color="#F9E8BB"/>
</linearGradient>
<linearGradient id="paint3_linear_1406_9018" x1="267.608" y1="310.106" x2="268.263" y2="453.287" gradientUnits="userSpaceOnUse">
<stop stop-color="white" stop-opacity="0"/>
<stop offset="1" stop-color="white"/>
</linearGradient>
<radialGradient id="paint4_radial_1406_9018" cx="0" cy="0" r="1" gradientUnits="userSpaceOnUse" gradientTransform="translate(254.199 366.521) rotate(90.6725) scale(36.3352 54.3684)">
<stop stop-color="#F0860D"/>
<stop offset="0.406227" stop-color="#FFD457"/>
<stop offset="0.656795" stop-color="#FFF0C4" stop-opacity="0"/>
</radialGradient>
<radialGradient id="paint5_radial_1406_9018" cx="0" cy="0" r="1" gradientUnits="userSpaceOnUse" gradientTransform="translate(22 14.9876) rotate(88.0353) scale(18.4462 27.0813)">
<stop stop-color="#FFAA48"/>
<stop offset="0.3" stop-color="#FFD457"/>
<stop offset="0.78" stop-color="#FFF0C4" stop-opacity="0"/>
</radialGradient>
<radialGradient id="paint6_radial_1406_9018" cx="0" cy="0" r="1" gradientUnits="userSpaceOnUse" gradientTransform="translate(261.611 407.636) rotate(-96.0945) scale(18.4462 27.0813)">
<stop stop-color="#FFAA48"/>
<stop offset="0.3" stop-color="#FFD457"/>
<stop offset="0.78" stop-color="#FFF0C4" stop-opacity="0"/>
</radialGradient>
<linearGradient id="paint7_linear_1406_9018" x1="219.755" y1="353.46" x2="219.874" y2="369.121" gradientUnits="userSpaceOnUse">
<stop stop-color="#D7B088"/>
<stop offset="1" stop-color="#B88A5B"/>
</linearGradient>
<linearGradient id="paint8_linear_1406_9018" x1="275.821" y1="329.263" x2="259.214" y2="456.163" gradientUnits="userSpaceOnUse">
<stop stop-color="#FFF2CA" stop-opacity="0"/>
<stop offset="1" stop-color="#FFE079"/>
</linearGradient>
<linearGradient id="paint9_linear_1406_9018" x1="323.703" y1="168.516" x2="323.823" y2="259.504" gradientUnits="userSpaceOnUse">
<stop stop-color="white"/>
<stop offset="1" stop-color="white" stop-opacity="0"/>
</linearGradient>
<linearGradient id="paint10_linear_1406_9018" x1="74.7367" y1="64.7012" x2="54.9851" y2="114.71" gradientUnits="userSpaceOnUse">
<stop stop-color="white"/>
<stop offset="1" stop-color="white" stop-opacity="0"/>
</linearGradient>
<clipPath id="clip0_1406_9018">
<rect width="390" height="448" fill="white" transform="translate(4)"/>
</clipPath>
<clipPath id="clip1_1406_9018">
<rect width="340" height="173" fill="white" transform="translate(28 254)"/>
</clipPath>
</defs>
</svg>
