<svg width="131" height="94" viewBox="0 0 131 94" fill="none" xmlns="http://www.w3.org/2000/svg">
<rect x="35.5" width="60" height="60" rx="30" fill="#FFF1E7"/>
<g opacity="0.6">
<path d="M79.8668 24.0841C78.1168 16.3841 71.4002 12.9175 65.5002 12.9175C65.5002 12.9175 65.5002 12.9175 65.4835 12.9175C59.6002 12.9175 52.8668 16.3675 51.1168 24.0675C49.1668 32.6675 54.4335 39.9508 59.2002 44.5341C60.9668 46.2341 63.2335 47.0841 65.5002 47.0841C67.7668 47.0841 70.0335 46.2341 71.7835 44.5341C76.5502 39.9508 81.8168 32.6841 79.8668 24.0841ZM65.5002 32.4341C62.6002 32.4341 60.2502 30.0841 60.2502 27.1841C60.2502 24.2841 62.6002 21.9341 65.5002 21.9341C68.4002 21.9341 70.7502 24.2841 70.7502 27.1841C70.7502 30.0841 68.4002 32.4341 65.5002 32.4341Z" fill="#FF7512"/>
</g>
<path d="M5.184 79.776C5.87733 79.776 6.496 79.8987 7.04 80.144C7.59467 80.3893 8.02667 80.736 8.336 81.184C8.64533 81.6213 8.8 82.1227 8.8 82.688C8.8 83.2533 8.64533 83.76 8.336 84.208C8.02667 84.6453 7.59467 84.9867 7.04 85.232C6.496 85.4773 5.87733 85.6 5.184 85.6C4.50133 85.6 3.88267 85.4773 3.328 85.232C2.784 84.9867 2.35733 84.6453 2.048 84.208C1.73867 83.76 1.584 83.2533 1.584 82.688C1.584 82.1227 1.73867 81.6213 2.048 81.184C2.35733 80.736 2.784 80.3893 3.328 80.144C3.88267 79.8987 4.50133 79.776 5.184 79.776ZM0.576 86.736C2.336 86.736 3.97333 86.704 5.488 86.64C7.00267 86.576 8.44267 86.4373 9.808 86.224L9.904 87.264C8.77333 87.4773 7.456 87.6373 5.952 87.744V92.768H4.56V87.824C3.41867 87.8773 2.14933 87.904 0.752 87.904L0.576 86.736ZM2.912 82.688C2.912 83.2107 3.12533 83.6373 3.552 83.968C3.97867 84.288 4.52267 84.448 5.184 84.448C5.856 84.448 6.40533 84.288 6.832 83.968C7.25867 83.6373 7.472 83.2107 7.472 82.688C7.472 82.1653 7.25867 81.7387 6.832 81.408C6.40533 81.0773 5.856 80.912 5.184 80.912C4.52267 80.912 3.97867 81.0773 3.552 81.408C3.12533 81.7387 2.912 82.1653 2.912 82.688ZM10.784 79.12H12.16V93.216H10.784V79.12ZM25.8084 79.12V93.2H24.4164V79.12H25.8084ZM14.4964 89.44C15.1897 89.12 15.8084 88.6613 16.3524 88.064C16.907 87.456 17.3337 86.768 17.6324 86C17.9417 85.232 18.0964 84.448 18.0964 83.648V82.656H14.8964V81.552H18.0964V79.392H19.4884V81.552H22.6404V82.656H19.4724V83.648C19.4724 84.4053 19.627 85.152 19.9364 85.888C20.2564 86.624 20.6937 87.28 21.2484 87.856C21.8137 88.432 22.4484 88.8747 23.1524 89.184L22.3684 90.256C21.5684 89.8933 20.8537 89.3547 20.2244 88.64C19.6057 87.9253 19.1364 87.1093 18.8164 86.192C18.507 87.1627 18.0377 88.0267 17.4084 88.784C16.7897 89.5413 16.075 90.112 15.2644 90.496L14.4964 89.44ZM40.6888 85.648V86.688H27.9368V85.648H40.6888ZM29.4408 87.76H39.1048V90.816H30.8488V92.048H39.5368V93.04H29.4728V89.872H37.7448V88.752H29.4408V87.76ZM29.5528 79.52H39.0568V82.512H30.9288V83.648H39.3128V84.656H29.5848V81.584H37.6968V80.512H29.5528V79.52ZM56.5046 79.136V86.672H55.1286V79.136H56.5046ZM45.2566 83.04C45.2566 82.4107 45.4113 81.8507 45.7206 81.36C46.0406 80.8587 46.4833 80.4747 47.0486 80.208C47.614 79.9307 48.2486 79.792 48.9526 79.792C49.6566 79.792 50.2913 79.9307 50.8566 80.208C51.422 80.4747 51.8593 80.8587 52.1686 81.36C52.4886 81.8507 52.6486 82.4107 52.6486 83.04C52.6486 83.6693 52.4886 84.2347 52.1686 84.736C51.8593 85.2267 51.422 85.6107 50.8566 85.888C50.2913 86.1547 49.6566 86.288 48.9526 86.288C48.2486 86.288 47.614 86.1547 47.0486 85.888C46.4833 85.6107 46.0406 85.2267 45.7206 84.736C45.4113 84.2347 45.2566 83.6693 45.2566 83.04ZM46.6166 83.04C46.6166 83.6587 46.8353 84.1653 47.2726 84.56C47.71 84.944 48.27 85.136 48.9526 85.136C49.6353 85.136 50.1953 84.944 50.6326 84.56C51.07 84.1653 51.2886 83.6587 51.2886 83.04C51.2886 82.4213 51.07 81.92 50.6326 81.536C50.1953 81.1413 49.6353 80.944 48.9526 80.944C48.27 80.944 47.71 81.1413 47.2726 81.536C46.8353 81.92 46.6166 82.4213 46.6166 83.04ZM47.4166 87.376H48.7766V89.024H55.1446V87.376H56.5046V93.024H47.4166V87.376ZM55.1446 91.904V90.112H48.7766V91.904H55.1446ZM65.257 79.968V84.016H60.585V86.08C61.8863 86.08 62.921 86.0587 63.689 86.016C64.4677 85.9627 65.2463 85.8667 66.025 85.728L66.169 86.848C65.3477 86.9973 64.521 87.0933 63.689 87.136C62.8677 87.1787 61.7103 87.2 60.217 87.2H59.209V82.944H63.897V81.104H59.161V79.968H65.257ZM60.777 88.528H70.233V93.232H68.841V89.648H60.777V88.528ZM66.169 84.128H68.841V82.336H66.169V81.2H68.841V79.136H70.233V87.792H68.841V85.248H66.169V84.128ZM75.0654 81.504V79.52H76.4254V81.504H79.2094V82.624H72.2654V81.504H75.0654ZM72.7294 86.752C72.7294 86.1333 72.8574 85.5787 73.1134 85.088C73.38 84.5973 73.7427 84.2133 74.2014 83.936C74.66 83.6587 75.1774 83.52 75.7534 83.52C76.3294 83.52 76.8467 83.6587 77.3054 83.936C77.7747 84.2133 78.1374 84.5973 78.3934 85.088C78.66 85.5787 78.7934 86.1333 78.7934 86.752C78.7934 87.3813 78.66 87.9413 78.3934 88.432C78.1374 88.9227 77.7747 89.3067 77.3054 89.584C76.8467 89.8507 76.3294 89.984 75.7534 89.984C75.1774 89.984 74.6547 89.8507 74.1854 89.584C73.7267 89.3067 73.3694 88.9227 73.1134 88.432C72.8574 87.9413 72.7294 87.3813 72.7294 86.752ZM73.9614 86.752C73.9614 87.36 74.1267 87.856 74.4574 88.24C74.7987 88.624 75.2307 88.816 75.7534 88.816C76.276 88.816 76.708 88.624 77.0494 88.24C77.3907 87.856 77.5614 87.36 77.5614 86.752C77.5614 86.144 77.3907 85.648 77.0494 85.264C76.708 84.88 76.276 84.688 75.7534 84.688C75.2307 84.688 74.7987 84.88 74.4574 85.264C74.1267 85.648 73.9614 86.144 73.9614 86.752ZM79.8974 79.456H81.1934V85.024H82.9054V79.12H84.2174V93.2H82.9054V86.16H81.1934V92.528H79.8974V79.456ZM98.6978 87.12V88.256H92.9858V93.216H91.6098V88.256H85.9618V87.12H98.6978ZM86.6978 84.88C87.5511 84.7627 88.3458 84.5227 89.0818 84.16C89.8284 83.7867 90.4258 83.3333 90.8738 82.8C91.3218 82.256 91.5458 81.696 91.5458 81.12V81.104H87.1458V79.984H97.4658V81.104H93.0978V81.12C93.0978 81.696 93.3218 82.256 93.7698 82.8C94.2178 83.3333 94.8151 83.7867 95.5618 84.16C96.3084 84.5227 97.1084 84.7627 97.9618 84.88L97.4338 86C96.2924 85.808 95.2578 85.4347 94.3298 84.88C93.4124 84.3147 92.7458 83.6267 92.3298 82.816C91.9031 83.6267 91.2311 84.3147 90.3138 84.88C89.3964 85.4347 88.3671 85.808 87.2258 86L86.6978 84.88ZM107.402 84.128V79.424H108.698V92.496H107.402V85.28H105.162V84.128H107.402ZM99.4341 89.168C100.383 88.6027 101.13 87.76 101.674 86.64C102.218 85.5093 102.49 84.32 102.49 83.072V80.448H103.818V83.04C103.818 84.2027 104.069 85.3227 104.57 86.4C105.082 87.4667 105.786 88.2773 106.682 88.832L105.898 89.904C105.258 89.52 104.709 88.9867 104.25 88.304C103.791 87.6213 103.434 86.8533 103.178 86C102.911 86.928 102.533 87.76 102.042 88.496C101.551 89.2213 100.97 89.792 100.298 90.208L99.4341 89.168ZM110.266 79.12H111.594V93.2H110.266V79.12ZM116.379 90.272V86.528C115.781 86.1973 115.317 85.7867 114.987 85.296C114.667 84.8053 114.507 84.2453 114.507 83.616C114.507 82.8907 114.725 82.256 115.163 81.712C115.6 81.1573 116.208 80.7307 116.987 80.432C117.765 80.1333 118.651 79.984 119.643 79.984C120.645 79.984 121.531 80.1333 122.299 80.432C123.077 80.7307 123.685 81.1573 124.123 81.712C124.56 82.256 124.779 82.8907 124.779 83.616C124.779 84.2347 124.619 84.7893 124.299 85.28C123.979 85.7707 123.531 86.176 122.955 86.496V90.272H126.043V91.408H113.291V90.272H116.379ZM115.867 83.616C115.867 84.128 116.027 84.576 116.347 84.96C116.667 85.344 117.109 85.6427 117.675 85.856C118.251 86.0587 118.907 86.16 119.643 86.16C120.379 86.16 121.035 86.0587 121.611 85.856C122.187 85.6427 122.635 85.344 122.955 84.96C123.275 84.576 123.435 84.128 123.435 83.616C123.435 83.1147 123.275 82.672 122.955 82.288C122.635 81.904 122.187 81.6053 121.611 81.392C121.035 81.1787 120.379 81.072 119.643 81.072C118.907 81.072 118.251 81.1787 117.675 81.392C117.109 81.6053 116.667 81.904 116.347 82.288C116.027 82.672 115.867 83.1147 115.867 83.616ZM121.563 90.272V87.024C120.965 87.1733 120.325 87.248 119.643 87.248C119.013 87.248 118.384 87.1787 117.755 87.04V90.272H121.563ZM128.171 90.528C128.416 90.528 128.619 90.608 128.779 90.768C128.939 90.928 129.019 91.136 129.019 91.392C129.019 91.648 128.939 91.856 128.779 92.016C128.619 92.1867 128.416 92.272 128.171 92.272C127.915 92.272 127.702 92.1867 127.531 92.016C127.371 91.856 127.291 91.648 127.291 91.392C127.291 91.136 127.371 90.928 127.531 90.768C127.702 90.608 127.915 90.528 128.171 90.528Z" fill="#A69F95"/>
</svg>
