<svg width="165" height="32" viewBox="0 0 165 32" fill="none" xmlns="http://www.w3.org/2000/svg">
<mask id="path-1-inside-1_797_16550" fill="white">
<path fill-rule="evenodd" clip-rule="evenodd" d="M8 0C3.58172 0 0 3.58172 0 8V24C0 28.4183 3.58172 32 8 32H150C154.418 32 158 28.4183 158 24V17.8169L163.901 6.46108C164.247 5.79539 163.764 5 163.013 5H157.418C156.232 2.06817 153.357 0 150 0H8Z"/>
</mask>
<path fill-rule="evenodd" clip-rule="evenodd" d="M8 0C3.58172 0 0 3.58172 0 8V24C0 28.4183 3.58172 32 8 32H150C154.418 32 158 28.4183 158 24V17.8169L163.901 6.46108C164.247 5.79539 163.764 5 163.013 5H157.418C156.232 2.06817 153.357 0 150 0H8Z" fill="white"/>
<path d="M158 17.8169L157.113 17.3559L157 17.5726V17.8169H158ZM163.901 6.46108L163.013 5.99999L163.013 6L163.901 6.46108ZM157.418 5L156.492 5.37522L156.744 6H157.418V5ZM1 8C1 4.13401 4.13401 1 8 1V-1C3.02944 -1 -1 3.02944 -1 8H1ZM1 24V8H-1V24H1ZM8 31C4.134 31 1 27.866 1 24H-1C-1 28.9706 3.02943 33 8 33V31ZM150 31H8V33H150V31ZM157 24C157 27.866 153.866 31 150 31V33C154.971 33 159 28.9706 159 24H157ZM157 17.8169V24H159V17.8169H157ZM158.887 18.278L164.788 6.92217L163.013 6L157.113 17.3559L158.887 18.278ZM164.788 6.92218C165.48 5.59078 164.514 4 163.013 4V6V5.99999L164.788 6.92218ZM163.013 4H157.418V6H163.013V4ZM150 1C152.936 1 155.452 2.80802 156.492 5.37522L158.345 4.62478C157.011 1.32832 153.779 -1 150 -1V1ZM8 1H150V-1H8V1Z" fill="#FF7512" mask="url(#path-1-inside-1_797_16550)"/>
</svg>
