<svg width="390" height="449" viewBox="0 0 390 449" fill="none" xmlns="http://www.w3.org/2000/svg">
<rect width="390" height="327.033" fill="#F8F9FA"/>
<g clip-path="url(#clip0_742_4442)">
<rect width="390" height="448.045" fill="#FFFCF6"/>
<path d="M391 468L0 468L4.3012e-05 -24L391 -24L391 468Z" fill="url(#paint0_linear_742_4442)"/>
<path opacity="0.4" fill-rule="evenodd" clip-rule="evenodd" d="M315.316 287.86C342.159 287.271 365.328 273.846 377.491 254.371C383.016 254.008 388.664 252.675 394.163 250.281C417.004 240.337 428.625 215.86 420.118 195.611C411.704 175.583 386.753 167.191 364.108 176.632C350.74 165.388 332.529 158.662 312.592 159.099C283.196 159.744 258.207 175.783 247.252 198.303C234.71 195.134 220.591 197.007 208.762 204.533C187.77 217.888 181.94 243.987 195.742 262.826C209.544 281.665 237.75 286.111 258.742 272.756C260.254 271.794 261.688 270.765 263.041 269.679C276.474 281.311 294.999 288.305 315.316 287.86Z" fill="url(#paint1_linear_742_4442)"/>
<circle cx="340.5" cy="49.5" r="94.5" fill="url(#paint2_radial_742_4442)"/>
<circle opacity="0.5" cx="340.5" cy="49.5" r="52.5" fill="url(#paint3_radial_742_4442)"/>
<circle opacity="0.2" cx="262" cy="107" r="20" fill="white"/>
<circle opacity="0.2" cx="230" cy="137" r="10" fill="white"/>
<path opacity="0.3" fill-rule="evenodd" clip-rule="evenodd" d="M50.1394 135.096C55.0847 134.961 59.8153 134.091 64.2003 132.606C69.2112 137.777 76.7238 140.963 85.0401 140.737C99.7144 140.339 111.334 129.47 110.994 116.461C110.719 105.973 102.754 97.2953 91.988 94.5347C90.6472 74.1781 71.3311 58.39 48.1473 59.0191C37.0189 59.3211 26.9784 63.352 19.5152 69.7187C13.1438 64.3253 4.24773 61.6801 -4.59015 63.3274C-18.9786 66.0094 -27.764 79.0533 -24.213 92.4619C-20.662 105.87 -6.11924 114.566 8.26917 111.884C8.64143 111.815 9.00993 111.738 9.37458 111.655C15.8964 125.828 31.8089 135.593 50.1394 135.096Z" fill="url(#paint4_linear_742_4442)"/>
<path fill-rule="evenodd" clip-rule="evenodd" d="M87.9586 236C70.7233 236 55.426 247.04 49.9957 263.397L8.8743 387.268C8.57212 388.178 8.33772 389.09 8.16777 390H0V448H390V390H381.832C381.662 389.09 381.428 388.178 381.126 387.268L340.004 263.397C334.574 247.04 319.277 236 302.041 236H87.9586Z" fill="#FFFCF6"/>
<g clip-path="url(#clip1_742_4442)">
<path d="M62.6348 282.216C67.8057 265.443 83.3074 254 100.86 254H287.14C304.693 254 320.194 265.443 325.365 282.216L361.887 400.684C365.918 413.758 356.143 427 342.462 427H45.5384C31.8572 427 22.0824 413.758 26.1129 400.684L62.6348 282.216Z" fill="#8BD2F7"/>
<path d="M218.53 395.647C220.185 390.494 224.977 387 230.389 387H321.611C327.023 387 331.815 390.494 333.47 395.647L349 444H203L218.53 395.647Z" fill="#FF7512"/>
<path d="M52.53 395.647C54.1849 390.494 58.9774 387 64.3891 387H155.611C161.023 387 165.815 390.494 167.47 395.647L183 444H37L52.53 395.647Z" fill="#FF7512"/>
<rect x="132" y="247.895" width="124" height="20" rx="6.22786" fill="#FFFCF6"/>
<path fill-rule="evenodd" clip-rule="evenodd" d="M124.143 294.484C107.283 294.484 92.6902 298.546 85.6424 304.459C83.0506 306.037 81.0005 308.477 79.9308 311.47L79.4343 312.859C54.6058 382.32 53.4507 458.042 76.149 528.228C76.9784 530.792 78.5321 532.973 80.5399 534.572C86.6326 541.411 102.397 546.266 120.876 546.237C140.332 546.207 156.762 540.772 162.057 533.342C165.075 530.097 166.426 525.355 164.983 520.644C144.934 455.205 146.166 384.665 168.222 319.875C170.343 313.646 167.526 307.199 162.334 304.205C155.174 298.43 140.759 294.484 124.143 294.484Z" fill="#FFFCF6"/>
<path d="M87.6687 341.013C89.4986 334.75 96.0863 331.182 102.331 333.072L109.154 335.137C117.772 337.746 126.958 337.823 135.619 335.359L150.901 331.013C155.476 329.711 159.677 333.99 158.293 338.54C141.425 394.008 140.966 453.172 156.972 508.894L157.471 510.63C159.699 518.388 153.955 526.145 145.885 526.276L104.045 526.954C98.197 527.049 92.9965 523.252 91.3065 517.653L88.4101 508.057C71.98 453.624 71.7224 395.589 87.6687 341.013Z" fill="url(#paint5_linear_742_4442)"/>
<ellipse cx="123.143" cy="316.484" rx="36" ry="15" fill="url(#paint6_linear_742_4442)"/>
<path opacity="0.4" d="M124.367 286.057C98.2919 285.252 80.4747 293.079 74.9402 302.676C68.2657 316.341 60.8525 343.624 56.2257 368.877C54.4262 378.698 63.9021 380.055 66.3858 379.489C66.3858 379.489 101.261 371.061 106.62 369.901C113.891 368.477 121.742 367.361 126.404 375.43C126.404 375.43 130.639 382.125 133.623 386.898C137.615 393.282 138.849 395.66 143.861 399.375C148.873 403.091 156.961 400.208 159.259 393.022C162.999 365.339 162.989 357.254 172.548 330.976C182.108 304.698 169.732 297.915 160.617 293.059C151.43 288.999 138.469 286.493 124.367 286.057Z" fill="#F2B11A"/>
<circle opacity="0.5" cx="79.215" cy="356.215" r="5" transform="rotate(2.51813 79.215 356.215)" fill="white"/>
<path opacity="0.5" d="M81.7824 341.973C81.7825 334.5 84.9989 322.001 90.0497 313.309" stroke="white" stroke-width="10" stroke-linecap="round"/>
<path d="M94.3242 392.824C92.3483 393.916 88.9528 395.907 84.5865 392.166" stroke="#AE844A" stroke-width="5" stroke-linecap="round"/>
<path d="M73.5879 384.906L80.2843 383.691" stroke="#AE844A" stroke-width="6" stroke-linecap="round"/>
<path d="M100.973 386.082L107.444 388.188" stroke="#AE844A" stroke-width="6" stroke-linecap="round"/>
<ellipse cx="263.608" cy="371.364" rx="63.7476" ry="81.9245" transform="rotate(-17.6004 263.608 371.364)" fill="url(#paint7_linear_742_4442)"/>
<path fill-rule="evenodd" clip-rule="evenodd" d="M282.815 327.762C312.194 335.026 333.987 361.7 333.987 393.493C333.987 398.438 333.46 403.259 332.459 407.902C332.708 408.864 332.915 409.846 333.079 410.847C335.86 427.822 325.114 443.714 309.075 446.342C308.938 446.364 308.8 446.386 308.662 446.406C297.157 455.651 282.569 461.178 266.698 461.178C229.535 461.178 199.408 430.874 199.408 393.493C199.408 390.368 199.619 387.293 200.026 384.281C199.623 382.244 199.41 380.128 199.41 377.958C199.41 366.682 205.148 356.888 213.572 351.947C218.012 346.211 223.35 341.213 229.374 337.166C235.816 328.397 247.824 322.5 261.573 322.5C269.469 322.5 276.791 324.445 282.815 327.762Z" fill="#FEEFAE"/>
<ellipse cx="249.572" cy="362.188" rx="43.9789" ry="30.4666" transform="rotate(144.981 249.572 362.188)" fill="url(#paint8_radial_742_4442)"/>
<ellipse cx="22" cy="14.9876" rx="22" ry="14.9876" transform="matrix(0.997403 0.0720167 0.0720167 -0.997403 288.154 422)" fill="url(#paint9_radial_742_4442)"/>
<path d="M235.668 409.22C235.072 400.964 244.413 393.562 256.531 392.687C268.65 391.812 278.957 397.795 279.553 406.051C280.15 414.307 270.809 421.709 258.69 422.584C246.571 423.459 236.264 417.476 235.668 409.22Z" fill="url(#paint10_radial_742_4442)"/>
<rect x="214.371" y="316.492" width="3.11393" height="52.6288" rx="1.55697" transform="rotate(-36.0271 214.371 316.492)" fill="url(#paint11_linear_742_4442)"/>
<path d="M329.072 398.501C328.888 399.912 329.064 403.873 329.099 406.511C329.116 407.833 329.204 409.157 329.393 410.465C330.388 417.354 329.96 424.129 326.072 430C320.313 439.5 314.072 441.5 307.572 442.5C293.072 453.5 285.857 460.329 255.215 456.164C224.572 452 196.47 415.427 204.573 383.001C209.159 347.958 236.949 324.7 271.821 329.264C306.693 333.827 333.658 363.458 329.072 398.501Z" fill="url(#paint12_linear_742_4442)"/>
<path d="M304.953 401L298.192 399.188" stroke="#AE844A" stroke-width="6" stroke-linecap="round"/>
<path d="M272.953 399L266.192 400.812" stroke="#AE844A" stroke-width="6" stroke-linecap="round"/>
<path d="M282.072 407C282.072 405.895 282.968 405 284.072 405H290.072C291.177 405 292.072 405.895 292.072 407V410C292.072 412.761 289.834 415 287.072 415C284.311 415 282.072 412.761 282.072 410V407Z" stroke="#AE844A" stroke-width="4"/>
<circle cx="238.262" cy="454.734" r="46.2419" transform="rotate(-15 238.262 454.734)" stroke="#FF7512" stroke-width="12.4557"/>
<path d="M226.869 412.816L249.436 497.036" stroke="#FF7512" stroke-width="12.4557" stroke-linecap="round"/>
<g filter="url(#filter0_d_742_4442)">
<path d="M217.315 396.835C210.56 398.645 206.159 404.869 206.35 411.604C206.405 413.542 208.376 414.663 210.249 414.161L221.173 411.234L232.098 408.307C233.97 407.805 235.117 405.848 234.196 404.143C230.994 398.215 224.071 395.025 217.315 396.835Z" fill="#FEF0B9"/>
<path d="M206.438 411.601C206.247 404.906 210.623 398.719 217.338 396.92C224.053 395.121 230.936 398.291 234.118 404.184C235.006 405.827 233.908 407.731 232.075 408.222L221.151 411.149L210.226 414.077C208.393 414.568 206.491 413.468 206.438 411.601Z" stroke="#FF7755" stroke-opacity="0.0705882" stroke-width="0.175506"/>
</g>
</g>
<rect y="123.203" width="20.2025" height="8.73418" fill="#F5F6FF"/>
<rect y="166.875" width="20.2025" height="8.73418" fill="#F5F6FF"/>
<rect x="17" y="97" width="110" height="110" rx="20" fill="#7AC84F"/>
<rect x="24" y="104" width="96" height="96" rx="14" stroke="white" stroke-width="4"/>
<path d="M67.45 132.5H65.25C67.1 134.3 68.25 136.85 68 140.4C67.5 146.75 62.1 150.3 55.7 150.2H53.2C48.2 150.2 38.75 148.85 38.75 139.15C38.75 136.3 39.7 134.15 41.2 132.5H39.9C38.35 132.5 37.1 131.2 37.1 129.6C37.1 128 38.35 126.7 39.9 126.7H49.65V125.1C49.65 123.7 50.25 122.3 53.45 122.3C56.7 122.3 57.25 123.7 57.25 125.1V126.7H67.45C69 126.7 70.3 128 70.3 129.6C70.3 131.2 69 132.5 67.45 132.5ZM60.95 140.8C61.7 136.1 58.4 134.15 54.1 133.9C50.35 133.75 46.05 134.7 45.8 138.5C45.5 143.1 48.85 144.75 53.3 144.75C56.85 144.75 60.45 144.05 60.95 140.8ZM90.5539 139.8L83.7039 146.1C82.2039 147.1 80.8039 149.05 78.7039 149.65C77.5039 149.95 75.9039 149.55 75.1539 148.55C74.1039 147 75.3039 145.25 76.3039 144.05C78.3039 141.75 80.4039 139.65 82.6539 137.65C84.1039 136.4 86.8039 133.1 86.8039 133.1C86.8039 133.1 86.6539 131 86.9039 129.1C87.0539 127.9 87.5539 126.75 88.1039 126.2C88.9539 125.4 90.7039 125.2 91.7539 125.5C93.3039 125.95 93.9039 127.15 94.0539 128.7C94.2039 129.95 93.9539 132.2 94.7039 133.25C95.2539 134.05 95.7039 134.8 96.3539 135.5C98.6539 138.1 101.054 140.8 103.454 143.3C105.004 144.95 106.804 148.35 104.004 149.7C102.054 150.65 100.204 149.1 98.9539 147.75L90.5539 139.8ZM68 156.35C69.7 157.35 69.75 161.1 69.75 161.25V170.55C69.75 172.1 69.75 173.6 69.5 175.2C69.35 176.15 69.15 177.2 68.15 177.7C67.05 178.25 65.3 178.15 64.1 178.1C62.7 178.1 61.25 178.25 59.85 178.25H58.45C57.4 178.25 56.35 178.2 55.3 178.25C52.8 178.35 50.3 178.35 47.8 178.25C46.1 178.15 44.4 178.3 42.65 178.2C41 178.1 39.25 177.5 38.95 175.6C38.3 171.75 38.5 169.5 38.5 165.6V165.55C38.5 165 38.55 164.4 38.55 163.8V162.05C38.55 160.25 38.25 157.45 40.1 156.45C42.15 155.45 44.9 155.4 47.15 155.4H63.45C63.6 155.4 66.65 155.55 68 156.35ZM48.75 171.85C49.2 171.8 49.6 171.85 50 171.85H56.1C57.8 171.85 58.7 172 60.3 171.85C60.95 171.75 61.55 171.9 62.15 171.65C63.05 171.25 62.8 169 62.8 168.2V166.45V166.3V166.15C62.75 165.95 62.8 165.7 62.8 165.5C62.75 164.65 62.95 163.8 62.55 163.1C62.1 162.4 60.6 162.45 59.65 162.45H49.8C49.75 162.45 47.55 162.55 46.45 162.7C45.15 162.85 45 163.85 45 164.25V166.2C45 166.5 45 166.8 44.95 167.15C44.9 168.3 44.95 169.5 45.1 170.65C45.35 172.25 47.6 171.9 48.75 171.85ZM80.2039 154.8L102.754 154.7C105.154 154.7 107.154 155.15 107.154 157.4C107.354 160.75 104.804 160.75 102.554 160.6L95.0539 160.7L95.1039 163.6C95.1039 164.15 95.0039 164.95 95.1039 165.5C95.3039 166.25 95.9539 166.65 96.4039 167.2C98.3539 169.45 101.054 171.05 103.604 173.25C104.854 174.55 106.854 176.45 105.854 178.4C104.754 180.5 101.804 179.8 100.154 178.75C96.9539 176.7 94.3039 174.35 91.6039 171.8C91.4539 171.7 87.1539 175.3 85.2539 176.8C83.1039 178.45 79.0539 182.5 76.5539 179.05C74.8539 176.4 77.4539 174.55 79.4039 173.25C82.0039 171.5 84.6539 169 86.9039 166.75C87.8039 165.85 87.5539 165.1 87.5539 163.85V160.6H79.6539C79.6539 160.6 75.2039 161.05 74.9539 158C74.7539 155.8 76.1039 155 77.7539 154.85C78.2039 154.8 79.6039 154.8 80.2039 154.8Z" fill="white"/>
<circle cx="36" cy="116" r="3" fill="white"/>
<circle cx="108" cy="116" r="3" fill="white"/>
<circle cx="36" cy="188" r="3" fill="white"/>
<circle cx="108" cy="188" r="3" fill="white"/>
</g>
<defs>
<filter id="filter0_d_742_4442" x="196.044" y="381.03" width="56.7758" height="46.5512" filterUnits="userSpaceOnUse" color-interpolation-filters="sRGB">
<feFlood flood-opacity="0" result="BackgroundImageFix"/>
<feColorMatrix in="SourceAlpha" type="matrix" values="0 0 0 0 0 0 0 0 0 0 0 0 0 0 0 0 0 0 127 0" result="hardAlpha"/>
<feOffset dx="4" dy="-1"/>
<feGaussianBlur stdDeviation="7.15"/>
<feComposite in2="hardAlpha" operator="out"/>
<feColorMatrix type="matrix" values="0 0 0 0 0.861881 0 0 0 0 0.671302 0 0 0 0 0.112266 0 0 0 0.8 0"/>
<feBlend mode="normal" in2="BackgroundImageFix" result="effect1_dropShadow_742_4442"/>
<feBlend mode="normal" in="SourceGraphic" in2="effect1_dropShadow_742_4442" result="shape"/>
</filter>
<linearGradient id="paint0_linear_742_4442" x1="195.5" y1="-24" x2="195.5" y2="365.5" gradientUnits="userSpaceOnUse">
<stop stop-color="#0A88F7"/>
<stop offset="1" stop-color="#CCF7F7"/>
</linearGradient>
<linearGradient id="paint1_linear_742_4442" x1="319.703" y1="151.326" x2="319.828" y2="243.953" gradientUnits="userSpaceOnUse">
<stop stop-color="white"/>
<stop offset="1" stop-color="white" stop-opacity="0"/>
</linearGradient>
<radialGradient id="paint2_radial_742_4442" cx="0" cy="0" r="1" gradientUnits="userSpaceOnUse" gradientTransform="translate(340.5 49.5) rotate(90) scale(94.5 139.598)">
<stop stop-color="white" stop-opacity="0.5"/>
<stop offset="1" stop-color="white" stop-opacity="0"/>
</radialGradient>
<radialGradient id="paint3_radial_742_4442" cx="0" cy="0" r="1" gradientUnits="userSpaceOnUse" gradientTransform="translate(340.5 49.5) rotate(90) scale(52.5 186.072)">
<stop stop-color="white" stop-opacity="0.5"/>
<stop offset="1" stop-color="white" stop-opacity="0"/>
</radialGradient>
<linearGradient id="paint4_linear_742_4442" x1="67.7367" y1="58.6968" x2="47.3674" y2="109.358" gradientUnits="userSpaceOnUse">
<stop stop-color="white"/>
<stop offset="1" stop-color="white" stop-opacity="0"/>
</linearGradient>
<linearGradient id="paint5_linear_742_4442" x1="178.999" y1="349" x2="95.1901" y2="360.077" gradientUnits="userSpaceOnUse">
<stop offset="0.0428684" stop-color="#F9E8BB"/>
<stop offset="1" stop-color="#FFFCF6"/>
</linearGradient>
<linearGradient id="paint6_linear_742_4442" x1="123.143" y1="301.484" x2="123.143" y2="331.484" gradientUnits="userSpaceOnUse">
<stop stop-color="#FFFCF6"/>
<stop offset="1" stop-color="#F9E8BB"/>
</linearGradient>
<linearGradient id="paint7_linear_742_4442" x1="263.608" y1="310.106" x2="264.263" y2="453.287" gradientUnits="userSpaceOnUse">
<stop stop-color="white" stop-opacity="0"/>
<stop offset="1" stop-color="white"/>
</linearGradient>
<radialGradient id="paint8_radial_742_4442" cx="0" cy="0" r="1" gradientUnits="userSpaceOnUse" gradientTransform="translate(250.199 366.521) rotate(90.6725) scale(36.3352 54.3684)">
<stop stop-color="#F0860D"/>
<stop offset="0.406227" stop-color="#FFD457"/>
<stop offset="0.656795" stop-color="#FFF0C4" stop-opacity="0"/>
</radialGradient>
<radialGradient id="paint9_radial_742_4442" cx="0" cy="0" r="1" gradientUnits="userSpaceOnUse" gradientTransform="translate(22 14.9876) rotate(88.0353) scale(18.4462 27.0813)">
<stop stop-color="#FFAA48"/>
<stop offset="0.3" stop-color="#FFD457"/>
<stop offset="0.78" stop-color="#FFF0C4" stop-opacity="0"/>
</radialGradient>
<radialGradient id="paint10_radial_742_4442" cx="0" cy="0" r="1" gradientUnits="userSpaceOnUse" gradientTransform="translate(257.611 407.636) rotate(-96.0945) scale(18.4462 27.0813)">
<stop stop-color="#FFAA48"/>
<stop offset="0.3" stop-color="#FFD457"/>
<stop offset="0.78" stop-color="#FFF0C4" stop-opacity="0"/>
</radialGradient>
<linearGradient id="paint11_linear_742_4442" x1="215.755" y1="353.46" x2="215.874" y2="369.121" gradientUnits="userSpaceOnUse">
<stop stop-color="#D7B088"/>
<stop offset="1" stop-color="#B88A5B"/>
</linearGradient>
<linearGradient id="paint12_linear_742_4442" x1="271.821" y1="329.263" x2="255.214" y2="456.163" gradientUnits="userSpaceOnUse">
<stop stop-color="#FFF2CA" stop-opacity="0"/>
<stop offset="1" stop-color="#FFE079"/>
</linearGradient>
<clipPath id="clip0_742_4442">
<rect width="390" height="448.045" fill="white"/>
</clipPath>
<clipPath id="clip1_742_4442">
<rect width="340" height="173" fill="white" transform="translate(24 254)"/>
</clipPath>
</defs>
</svg>
