<svg width="24" height="24" viewBox="0 0 24 24" fill="none" xmlns="http://www.w3.org/2000/svg">
<path d="M20.6201 8.44805C19.5701 3.82805 15.5401 1.74805 12.0001 1.74805C12.0001 1.74805 12.0001 1.74805 11.9901 1.74805C8.4601 1.74805 4.4201 3.81805 3.3701 8.43805C2.2001 13.598 5.3601 17.968 8.2201 20.718C9.2801 21.738 10.6401 22.248 12.0001 22.248C13.3601 22.248 14.7201 21.738 15.7701 20.718C18.6301 17.968 21.7901 13.608 20.6201 8.44805ZM12.0001 13.458C10.2601 13.458 8.8501 12.048 8.8501 10.308C8.8501 8.56805 10.2601 7.15805 12.0001 7.15805C13.7401 7.15805 15.1501 8.56805 15.1501 10.308C15.1501 12.048 13.7401 13.458 12.0001 13.458Z" fill="#FFD6B8"/>
</svg>
