<svg width="390" height="266" viewBox="0 0 390 266" fill="none" xmlns="http://www.w3.org/2000/svg">
<path d="M31.76 52.224V53.344H23.6V57.648H31.904V58.784H27.648V62.304H33.36V63.456H20.608V62.304H26.272V58.784H22.208V52.224H31.76ZM39.9364 62.352V59.776H35.8564V55.36H44.0964V53.264H35.8244V52.144H45.4724V56.464H37.2164V58.656H45.7924V59.776H41.3124V62.352H47.0244V63.488H34.2724V62.352H39.9364ZM59.5368 51.136V59.44H58.1448V57.296H55.0248V58.48H48.5768V52.176H55.0248V53.376H58.1448V51.136H59.5368ZM53.6648 57.376V53.296H49.9368V57.376H53.6648ZM50.1768 62.528C50.1768 61.6853 50.5928 61.0293 51.4248 60.56C52.2674 60.0907 53.4194 59.856 54.8808 59.856C56.3421 59.856 57.4941 60.0907 58.3368 60.56C59.1794 61.0293 59.6008 61.6853 59.6008 62.528C59.6008 63.3707 59.1794 64.0213 58.3368 64.48C57.5048 64.9493 56.3528 65.184 54.8808 65.184C53.4088 65.184 52.2568 64.9493 51.4248 64.48C50.5928 64.0213 50.1768 63.3707 50.1768 62.528ZM51.5528 62.528C51.5528 63.0187 51.8461 63.408 52.4328 63.696C53.0194 63.9733 53.8354 64.112 54.8808 64.112C55.9261 64.112 56.7421 63.9733 57.3288 63.696C57.9154 63.4187 58.2088 63.0293 58.2088 62.528C58.2088 62.0267 57.9154 61.6373 57.3288 61.36C56.7528 61.0827 55.9368 60.944 54.8808 60.944C53.8354 60.944 53.0194 61.0827 52.4328 61.36C51.8461 61.6373 51.5528 62.0267 51.5528 62.528ZM58.1448 56.176V54.496H55.0248V56.176H58.1448ZM70.8086 57.44H74.8406V58.752H70.8086V62.768H69.5126V58.752H65.4806V57.44H69.5126V53.408H70.8086V57.44ZM91.2099 51.12V61.504H89.8179V56.576H86.8739V55.424H89.8179V51.12H91.2099ZM79.8019 58.832C81.4232 58.2987 82.7299 57.5573 83.7219 56.608C84.7245 55.648 85.2952 54.56 85.4339 53.344H80.5219V52.208H86.9219C86.9219 54 86.3405 55.5733 85.1779 56.928C84.0259 58.272 82.4312 59.28 80.3939 59.952L79.8019 58.832ZM82.2659 60.464H83.6739V63.776H91.5619V64.896H82.2659V60.464ZM105.994 57.024V58.144H100.314V59.44H104.362V62.656H96.1863V63.984H104.794V65.056H94.8423V61.664H103.018V60.496H94.7943V59.44H98.9223V58.144H93.2743V57.024H105.994ZM94.9223 51.6H104.346V55.888H94.9223V51.6ZM102.986 54.8V52.688H96.2823V54.8H102.986ZM118.539 51.136V61.552H117.147V56.192H114.011V59.184H107.627V52.064H108.987V54.496H112.651V52.064H114.011V55.056H117.147V51.136H118.539ZM112.651 58.048V55.584H108.987V58.048H112.651ZM109.467 60.528H110.843V63.776H118.875V64.896H109.467V60.528ZM126.267 53.136V51.328H127.659V53.136H132.683V54.256H121.227V53.136H126.267ZM120.603 62.432H126.267V60.528C125.03 60.4427 124.064 60.1707 123.371 59.712C122.678 59.2427 122.331 58.6187 122.331 57.84C122.331 56.9973 122.742 56.3413 123.563 55.872C124.384 55.392 125.515 55.152 126.955 55.152C128.384 55.152 129.51 55.392 130.331 55.872C131.163 56.3413 131.579 56.9973 131.579 57.84C131.579 58.6187 131.232 59.2427 130.539 59.712C129.846 60.1707 128.886 60.4427 127.659 60.528V62.432H133.355V63.568H120.603V62.432ZM123.723 57.84C123.723 58.3413 124.006 58.736 124.571 59.024C125.147 59.3013 125.942 59.44 126.955 59.44C127.958 59.44 128.742 59.3013 129.307 59.024C129.883 58.736 130.171 58.3413 130.171 57.84C130.171 57.3387 129.883 56.9493 129.307 56.672C128.742 56.384 127.958 56.24 126.955 56.24C125.942 56.24 125.147 56.384 124.571 56.672C124.006 56.9493 123.723 57.3387 123.723 57.84Z" fill="#282828"/>
<path d="M31.004 78.73V91.05H29.842V78.73H31.004ZM20.672 84.05C20.672 83.1727 20.7793 82.412 20.994 81.768C21.2087 81.1147 21.512 80.6153 21.904 80.27C22.3053 79.9153 22.7673 79.738 23.29 79.738C23.8127 79.738 24.27 79.906 24.662 80.242C25.0633 80.578 25.3713 81.054 25.586 81.67H27.42V78.996H28.568V90.434H27.42V86.43H25.586C25.3713 87.046 25.0633 87.5267 24.662 87.872C24.27 88.208 23.8127 88.376 23.29 88.376C22.7673 88.376 22.3053 88.2033 21.904 87.858C21.512 87.5033 21.2087 86.9993 20.994 86.346C20.7793 85.6927 20.672 84.9273 20.672 84.05ZM21.778 84.05C21.778 85.0393 21.9133 85.8187 22.184 86.388C22.4547 86.9573 22.8233 87.242 23.29 87.242C23.766 87.242 24.144 86.9573 24.424 86.388C24.704 85.8187 24.844 85.0393 24.844 84.05C24.844 83.0607 24.704 82.286 24.424 81.726C24.144 81.1567 23.766 80.872 23.29 80.872C22.8233 80.872 22.4547 81.1567 22.184 81.726C21.9133 82.286 21.778 83.0607 21.778 84.05ZM27.42 85.436V82.664H25.824C25.8987 83.112 25.936 83.574 25.936 84.05C25.936 84.526 25.8987 84.988 25.824 85.436H27.42ZM35.3583 82.006C35.6757 83.07 35.8343 84.05 35.8343 84.946C35.8343 85.842 35.6757 86.822 35.3583 87.886C35.041 88.95 34.635 89.8787 34.1403 90.672H32.8663C33.4263 89.9067 33.8837 88.992 34.2383 87.928C34.593 86.8547 34.7703 85.8607 34.7703 84.946C34.7703 84.0313 34.593 83.042 34.2383 81.978C33.8837 80.9047 33.4263 79.9853 32.8663 79.22H34.1403C34.635 80.0133 35.041 80.942 35.3583 82.006ZM47.4309 79.864V80.844H46.2269V84.82C46.8616 84.7733 47.4496 84.7173 47.9909 84.652L48.0749 85.562C46.1429 85.8607 43.6696 86.01 40.6549 86.01L40.5149 85.002L42.0269 84.988V80.844H40.8369V79.864H47.4309ZM42.3629 86.948H43.5669V89.804H50.6089V90.784H42.3629V86.948ZM43.2029 84.96C43.5949 84.9507 44.2156 84.9273 45.0649 84.89V80.844H43.2029V84.96ZM48.8449 78.744H50.0629V82.44H51.8689V83.462H50.0629V87.802H48.8449V78.744ZM62.3132 79.948V81.278C62.3132 82.3327 62.2899 83.2567 62.2432 84.05C62.1966 84.834 62.0752 85.744 61.8792 86.78L60.6892 86.64C60.8759 85.6693 60.9926 84.792 61.0392 84.008C61.0859 83.224 61.1092 82.314 61.1092 81.278V80.942H53.5772V79.948H62.3132ZM52.4432 88.348H55.1172V84.316H56.3212V88.348H58.1692V84.316H59.3732V88.348H63.5872V89.356H52.4432V88.348ZM74.5496 86.668V91.064H73.3316V87.634H66.3036V86.668H74.5496ZM64.5676 82.398C64.5676 81.8287 64.7029 81.32 64.9736 80.872C65.2536 80.4147 65.6362 80.06 66.1216 79.808C66.6162 79.556 67.1622 79.43 67.7596 79.43C68.2822 79.43 68.7582 79.528 69.1876 79.724C69.6262 79.9107 69.9902 80.1767 70.2796 80.522H73.3316V78.744H74.5496V85.996H73.3316V84.274H70.2796C69.9902 84.6193 69.6262 84.89 69.1876 85.086C68.7489 85.2727 68.2729 85.366 67.7596 85.366C67.1622 85.366 66.6209 85.24 66.1356 84.988C65.6502 84.736 65.2676 84.386 64.9876 83.938C64.7076 83.4807 64.5676 82.9673 64.5676 82.398ZM65.7156 82.398C65.7156 82.9673 65.9069 83.434 66.2896 83.798C66.6816 84.1527 67.1716 84.33 67.7596 84.33C68.3382 84.33 68.8189 84.1527 69.2016 83.798C69.5842 83.434 69.7756 82.9673 69.7756 82.398C69.7756 81.838 69.5842 81.376 69.2016 81.012C68.8189 80.648 68.3382 80.466 67.7596 80.466C67.1716 80.466 66.6816 80.648 66.2896 81.012C65.9069 81.376 65.7156 81.838 65.7156 82.398ZM73.3316 83.28V81.516H70.8116C70.8956 81.796 70.9376 82.09 70.9376 82.398C70.9376 82.706 70.8956 83 70.8116 83.28H73.3316ZM81.3119 88.558V86.304H77.7419V82.44H84.9519V80.606H77.7139V79.626H86.1559V83.406H78.9319V85.324H86.4359V86.304H82.5159V88.558H87.5139V89.552H76.3559V88.558H81.3119ZM91.5808 88.992C91.9635 88.6187 92.3648 88.2453 92.7848 87.872C93.5968 87.1347 94.2501 86.5093 94.7448 85.996C95.2488 85.4827 95.6735 84.96 96.0188 84.428C96.3735 83.896 96.5508 83.4013 96.5508 82.944C96.5508 82.3187 96.3688 81.81 96.0048 81.418C95.6501 81.0167 95.1881 80.816 94.6188 80.816C94.1988 80.816 93.7928 80.956 93.4008 81.236C93.0181 81.516 92.7288 81.88 92.5328 82.328L91.4828 81.866C91.7535 81.25 92.1828 80.746 92.7708 80.354C93.3588 79.962 93.9748 79.766 94.6188 79.766C95.2161 79.766 95.7481 79.9013 96.2148 80.172C96.6908 80.4427 97.0595 80.8207 97.3208 81.306C97.5821 81.782 97.7128 82.328 97.7128 82.944C97.7128 83.5507 97.5215 84.1713 97.1388 84.806C96.7561 85.4313 96.2941 86.0193 95.7528 86.57C95.2208 87.1207 94.5348 87.774 93.6948 88.53L93.1908 88.992H97.8808V90.028H91.7208L91.5808 88.992ZM104.313 84.778C104.752 85.0393 105.097 85.394 105.349 85.842C105.601 86.2807 105.727 86.7147 105.727 87.144C105.727 87.7133 105.587 88.222 105.307 88.67C105.027 89.118 104.635 89.468 104.131 89.72C103.627 89.972 103.053 90.098 102.409 90.098C101.765 90.098 101.191 89.972 100.687 89.72C100.183 89.468 99.7911 89.118 99.5111 88.67C99.2311 88.2127 99.0911 87.6947 99.0911 87.116H100.253C100.253 87.6853 100.454 88.152 100.855 88.516C101.256 88.88 101.774 89.062 102.409 89.062C103.044 89.062 103.562 88.8847 103.963 88.53C104.374 88.166 104.579 87.6993 104.579 87.13C104.579 86.5887 104.378 86.1453 103.977 85.8C103.576 85.4547 103.062 85.282 102.437 85.282H101.695V84.246H102.437C103.025 84.246 103.506 84.092 103.879 83.784C104.252 83.4667 104.439 83.0607 104.439 82.566C104.439 82.0527 104.257 81.6373 103.893 81.32C103.529 80.9933 103.062 80.83 102.493 80.83C101.924 80.83 101.457 80.9933 101.093 81.32C100.729 81.6467 100.547 82.0713 100.547 82.594H99.3851C99.3851 82.0527 99.5158 81.572 99.7771 81.152C100.038 80.7227 100.402 80.3913 100.869 80.158C101.345 79.9153 101.886 79.794 102.493 79.794C103.09 79.794 103.622 79.9107 104.089 80.144C104.556 80.3773 104.92 80.704 105.181 81.124C105.452 81.544 105.587 82.02 105.587 82.552C105.587 82.9533 105.47 83.3593 105.237 83.77C105.013 84.1807 104.705 84.5167 104.313 84.778ZM107.394 85.142L107.73 79.864H112.896V80.9H108.85L108.654 83.812C109.186 83.532 109.718 83.392 110.25 83.392C110.922 83.392 111.52 83.5367 112.042 83.826C112.574 84.106 112.985 84.5027 113.274 85.016C113.573 85.52 113.722 86.094 113.722 86.738C113.722 87.4007 113.573 87.9933 113.274 88.516C112.985 89.0293 112.574 89.4307 112.042 89.72C111.52 90.0093 110.922 90.154 110.25 90.154C109.728 90.154 109.233 90.0467 108.766 89.832C108.309 89.608 107.917 89.3 107.59 88.908C107.273 88.516 107.058 88.0727 106.946 87.578L108.08 87.312C108.192 87.8253 108.449 88.2453 108.85 88.572C109.261 88.8893 109.728 89.048 110.25 89.048C110.932 89.048 111.487 88.8333 111.916 88.404C112.346 87.9747 112.56 87.4193 112.56 86.738C112.56 86.0753 112.346 85.5387 111.916 85.128C111.487 84.708 110.932 84.498 110.25 84.498C109.961 84.498 109.658 84.5727 109.34 84.722C109.032 84.8713 108.771 85.0673 108.556 85.31L107.394 85.142ZM115.637 91.666H114.769L115.231 88.866H116.463L115.637 91.666ZM131.776 78.73V91.05H130.614V78.73H131.776ZM121.15 87.718C121.98 87.2047 122.624 86.444 123.082 85.436C123.548 84.428 123.782 83.3453 123.782 82.188V81.152H121.486V80.144H127.1V81.152H124.958V82.188C124.958 83.2893 125.182 84.3207 125.63 85.282C126.078 86.234 126.712 86.9527 127.534 87.438L126.806 88.32C126.236 87.9747 125.746 87.4987 125.336 86.892C124.925 86.276 124.608 85.576 124.384 84.792C124.16 85.6413 123.838 86.3973 123.418 87.06C122.998 87.7227 122.489 88.2407 121.892 88.614L121.15 87.718ZM126.176 83.14H128.15V79.01H129.284V90.434H128.15V84.134H126.176V83.14ZM144.418 85.73V86.724H139.42V91.064H138.216V86.724H133.274V85.73H144.418ZM133.918 83.77C134.665 83.6673 135.36 83.4573 136.004 83.14C136.657 82.8133 137.18 82.4167 137.572 81.95C137.964 81.474 138.16 80.984 138.16 80.48V80.466H134.31V79.486H143.34V80.466H139.518V80.48C139.518 80.984 139.714 81.474 140.106 81.95C140.498 82.4167 141.021 82.8133 141.674 83.14C142.327 83.4573 143.027 83.6673 143.774 83.77L143.312 84.75C142.313 84.582 141.408 84.2553 140.596 83.77C139.793 83.2753 139.21 82.6733 138.846 81.964C138.473 82.6733 137.885 83.2753 137.082 83.77C136.279 84.2553 135.379 84.582 134.38 84.75L133.918 83.77ZM151.201 80.144V78.688H152.405V80.144H155.079V81.124H152.405V81.348C152.405 82.0947 152.685 82.7713 153.245 83.378C153.805 83.9753 154.547 84.4047 155.471 84.666L154.911 85.632C154.202 85.4267 153.581 85.1093 153.049 84.68C152.517 84.2507 152.111 83.7467 151.831 83.168C151.56 83.8027 151.154 84.3533 150.613 84.82C150.081 85.2773 149.451 85.6227 148.723 85.856L148.163 84.904C149.078 84.624 149.81 84.162 150.361 83.518C150.921 82.8647 151.201 82.1413 151.201 81.348V81.124H148.499V80.144H151.201ZM150.291 86.64H158.313V90.896H150.291V86.64ZM157.137 89.916V87.606H151.481V89.916H157.137ZM154.743 82.146H157.095V78.744H158.313V86.01H157.095V83.14H154.743V82.146ZM169.723 78.73V82.356H171.529V83.35H169.723V87.648H168.505V78.73H169.723ZM160.707 79.78H166.153V80.774H161.911V84.498C163.143 84.498 164.147 84.47 164.921 84.414C165.705 84.358 166.48 84.2507 167.245 84.092L167.385 85.072C166.555 85.24 165.724 85.3567 164.893 85.422C164.072 85.478 162.999 85.506 161.673 85.506H160.707V79.78ZM162.023 86.752H163.227V89.804H170.255V90.784H162.023V86.752ZM177.046 88.558V86.304H173.476V82.44H180.686V80.606H173.448V79.626H181.89V83.406H174.666V85.324H182.17V86.304H178.25V88.558H183.248V89.552H172.09V88.558H177.046ZM187.315 88.992C187.697 88.6187 188.099 88.2453 188.519 87.872C189.331 87.1347 189.984 86.5093 190.479 85.996C190.983 85.4827 191.407 84.96 191.753 84.428C192.107 83.896 192.285 83.4013 192.285 82.944C192.285 82.3187 192.103 81.81 191.739 81.418C191.384 81.0167 190.922 80.816 190.353 80.816C189.933 80.816 189.527 80.956 189.135 81.236C188.752 81.516 188.463 81.88 188.267 82.328L187.217 81.866C187.487 81.25 187.917 80.746 188.505 80.354C189.093 79.962 189.709 79.766 190.353 79.766C190.95 79.766 191.482 79.9013 191.949 80.172C192.425 80.4427 192.793 80.8207 193.055 81.306C193.316 81.782 193.447 82.328 193.447 82.944C193.447 83.5507 193.255 84.1713 192.873 84.806C192.49 85.4313 192.028 86.0193 191.487 86.57C190.955 87.1207 190.269 87.774 189.429 88.53L188.925 88.992H193.615V90.028H187.455L187.315 88.992ZM200.537 86.22H201.965V87.242H200.537V90.014H199.375V87.242H194.965L194.825 86.22L199.417 79.878H200.537V86.22ZM199.375 86.22V81.88L196.239 86.22H199.375ZM203.284 88.992C203.667 88.6187 204.068 88.2453 204.488 87.872C205.3 87.1347 205.953 86.5093 206.448 85.996C206.952 85.4827 207.377 84.96 207.722 84.428C208.077 83.896 208.254 83.4013 208.254 82.944C208.254 82.3187 208.072 81.81 207.708 81.418C207.353 81.0167 206.891 80.816 206.322 80.816C205.902 80.816 205.496 80.956 205.104 81.236C204.721 81.516 204.432 81.88 204.236 82.328L203.186 81.866C203.457 81.25 203.886 80.746 204.474 80.354C205.062 79.962 205.678 79.766 206.322 79.766C206.919 79.766 207.451 79.9013 207.918 80.172C208.394 80.4427 208.763 80.8207 209.024 81.306C209.285 81.782 209.416 82.328 209.416 82.944C209.416 83.5507 209.225 84.1713 208.842 84.806C208.459 85.4313 207.997 86.0193 207.456 86.57C206.924 87.1207 206.238 87.774 205.398 88.53L204.894 88.992H209.584V90.028H203.424L203.284 88.992Z" fill="#A8A8A8"/>
<path d="M28.912 130.56V131.712H25.664V133.36C25.664 134.139 25.8293 134.912 26.16 135.68C26.4907 136.448 26.9387 137.131 27.504 137.728C28.0693 138.315 28.6987 138.757 29.392 139.056L28.608 140.16C27.7973 139.787 27.072 139.227 26.432 138.48C25.8027 137.733 25.3227 136.885 24.992 135.936C24.6613 136.96 24.176 137.883 23.536 138.704C22.9067 139.515 22.1867 140.117 21.376 140.512L20.576 139.408C21.2587 139.088 21.8827 138.608 22.448 137.968C23.0133 137.317 23.456 136.587 23.776 135.776C24.1067 134.965 24.272 134.16 24.272 133.36V131.712H21.04V130.56H28.912ZM30.736 129.136H32.128V143.216H30.736V129.136ZM45.8724 138.192V143.216H44.4804V139.296H36.4484V138.192H45.8724ZM34.4644 133.312C34.4644 132.661 34.619 132.08 34.9284 131.568C35.2484 131.045 35.6857 130.64 36.2404 130.352C36.8057 130.064 37.4297 129.92 38.1124 129.92C38.7097 129.92 39.2537 130.032 39.7444 130.256C40.2457 130.469 40.6617 130.773 40.9924 131.168H44.4804V129.136H45.8724V137.424H44.4804V135.456H40.9924C40.6617 135.851 40.2457 136.16 39.7444 136.384C39.243 136.597 38.699 136.704 38.1124 136.704C37.4297 136.704 36.811 136.56 36.2564 136.272C35.7017 135.984 35.2644 135.584 34.9444 135.072C34.6244 134.549 34.4644 133.963 34.4644 133.312ZM35.7764 133.312C35.7764 133.963 35.995 134.496 36.4324 134.912C36.8804 135.317 37.4404 135.52 38.1124 135.52C38.7737 135.52 39.323 135.317 39.7604 134.912C40.1977 134.496 40.4164 133.963 40.4164 133.312C40.4164 132.672 40.1977 132.144 39.7604 131.728C39.323 131.312 38.7737 131.104 38.1124 131.104C37.4404 131.104 36.8804 131.312 36.4324 131.728C35.995 132.144 35.7764 132.672 35.7764 133.312ZM44.4804 134.32V132.304H41.6004C41.6964 132.624 41.7444 132.96 41.7444 133.312C41.7444 133.664 41.6964 134 41.6004 134.32H44.4804ZM59.5368 129.136V137.44H58.1448V135.296H55.0248V136.48H48.5768V130.176H55.0248V131.376H58.1448V129.136H59.5368ZM53.6648 135.376V131.296H49.9368V135.376H53.6648ZM50.1768 140.528C50.1768 139.685 50.5928 139.029 51.4248 138.56C52.2674 138.091 53.4194 137.856 54.8808 137.856C56.3421 137.856 57.4941 138.091 58.3368 138.56C59.1794 139.029 59.6008 139.685 59.6008 140.528C59.6008 141.371 59.1794 142.021 58.3368 142.48C57.5048 142.949 56.3528 143.184 54.8808 143.184C53.4088 143.184 52.2568 142.949 51.4248 142.48C50.5928 142.021 50.1768 141.371 50.1768 140.528ZM51.5528 140.528C51.5528 141.019 51.8461 141.408 52.4328 141.696C53.0194 141.973 53.8354 142.112 54.8808 142.112C55.9261 142.112 56.7421 141.973 57.3288 141.696C57.9154 141.419 58.2088 141.029 58.2088 140.528C58.2088 140.027 57.9154 139.637 57.3288 139.36C56.7528 139.083 55.9368 138.944 54.8808 138.944C53.8354 138.944 53.0194 139.083 52.4328 139.36C51.8461 139.637 51.5528 140.027 51.5528 140.528ZM58.1448 134.176V132.496H55.0248V134.176H58.1448ZM63.2011 139.584C62.8385 138.357 62.6571 137.237 62.6571 136.224C62.6571 135.211 62.8385 134.096 63.2011 132.88C63.5638 131.653 64.0331 130.587 64.6091 129.68H66.0651C65.4145 130.565 64.8865 131.616 64.4811 132.832C64.0758 134.048 63.8731 135.179 63.8731 136.224C63.8731 137.269 64.0758 138.4 64.4811 139.616C64.8865 140.832 65.4145 141.883 66.0651 142.768H64.6091C64.0331 141.861 63.5638 140.8 63.2011 139.584ZM73.0705 136.032V134.48H69.0065V129.776H78.5425V130.896H70.3665V133.36H78.6385V134.48H74.4305V136.032H80.1265V137.152H67.4065V136.032H73.0705ZM68.9105 140.656C68.9105 139.856 69.3372 139.237 70.1905 138.8C71.0438 138.352 72.2278 138.128 73.7425 138.128C75.2572 138.128 76.4412 138.352 77.2945 138.8C78.1478 139.237 78.5745 139.856 78.5745 140.656C78.5745 141.467 78.1478 142.091 77.2945 142.528C76.4412 142.976 75.2572 143.2 73.7425 143.2C72.2172 143.2 71.0278 142.976 70.1745 142.528C69.3318 142.091 68.9105 141.467 68.9105 140.656ZM70.3025 140.656C70.3025 141.136 70.6012 141.504 71.1985 141.76C71.8065 142.005 72.6545 142.128 73.7425 142.128C74.8305 142.128 75.6732 142.005 76.2705 141.76C76.8678 141.504 77.1665 141.136 77.1665 140.656C77.1665 140.197 76.8678 139.84 76.2705 139.584C75.6732 139.328 74.8305 139.2 73.7425 139.2C72.6545 139.2 71.8065 139.328 71.1985 139.584C70.6012 139.84 70.3025 140.197 70.3025 140.656ZM82.5269 142.816H81.1829L84.5589 129.728H85.8869L82.5269 142.816ZM98.8029 129.104V143.232H97.4109V129.104H98.8029ZM88.0029 130.432H94.5309V135.504H89.4269V138.688C90.6429 138.688 91.7735 138.651 92.8189 138.576C93.8749 138.501 94.9789 138.373 96.1309 138.192L96.2749 139.328C95.1015 139.52 93.9709 139.653 92.8829 139.728C91.7949 139.792 90.5735 139.824 89.2189 139.824H88.0349V134.384H93.1389V131.552H88.0029V130.432ZM104.179 132.864C104.542 134.08 104.723 135.2 104.723 136.224C104.723 137.248 104.542 138.368 104.179 139.584C103.817 140.8 103.353 141.861 102.787 142.768H101.331C101.971 141.893 102.494 140.848 102.899 139.632C103.305 138.405 103.507 137.269 103.507 136.224C103.507 135.179 103.305 134.048 102.899 132.832C102.494 131.605 101.971 130.555 101.331 129.68H102.787C103.353 130.587 103.817 131.648 104.179 132.864ZM115.881 135.44H119.913V136.752H115.881V140.768H114.585V136.752H110.553V135.44H114.585V131.408H115.881V135.44ZM136.282 129.136V139.552H134.89V134.192H131.754V137.184H125.37V130.064H126.73V132.496H130.394V130.064H131.754V133.056H134.89V129.136H136.282ZM130.394 136.048V133.584H126.73V136.048H130.394ZM127.21 138.528H128.586V141.776H136.618V142.896H127.21V138.528ZM146.65 130.56V131.712H143.402V133.36C143.402 134.139 143.567 134.912 143.898 135.68C144.229 136.448 144.677 137.131 145.242 137.728C145.807 138.315 146.437 138.757 147.13 139.056L146.346 140.16C145.535 139.787 144.81 139.227 144.17 138.48C143.541 137.733 143.061 136.885 142.73 135.936C142.399 136.96 141.914 137.883 141.274 138.704C140.645 139.515 139.925 140.117 139.114 140.512L138.314 139.408C138.997 139.088 139.621 138.608 140.186 137.968C140.751 137.317 141.194 136.587 141.514 135.776C141.845 134.965 142.01 134.16 142.01 133.36V131.712H138.778V130.56H146.65ZM148.474 129.136H149.866V143.216H148.474V129.136Z" fill="#282828"/>
<path d="M31.004 156.73V169.05H29.842V156.73H31.004ZM20.672 162.05C20.672 161.173 20.7793 160.412 20.994 159.768C21.2087 159.115 21.512 158.615 21.904 158.27C22.3053 157.915 22.7673 157.738 23.29 157.738C23.8127 157.738 24.27 157.906 24.662 158.242C25.0633 158.578 25.3713 159.054 25.586 159.67H27.42V156.996H28.568V168.434H27.42V164.43H25.586C25.3713 165.046 25.0633 165.527 24.662 165.872C24.27 166.208 23.8127 166.376 23.29 166.376C22.7673 166.376 22.3053 166.203 21.904 165.858C21.512 165.503 21.2087 164.999 20.994 164.346C20.7793 163.693 20.672 162.927 20.672 162.05ZM21.778 162.05C21.778 163.039 21.9133 163.819 22.184 164.388C22.4547 164.957 22.8233 165.242 23.29 165.242C23.766 165.242 24.144 164.957 24.424 164.388C24.704 163.819 24.844 163.039 24.844 162.05C24.844 161.061 24.704 160.286 24.424 159.726C24.144 159.157 23.766 158.872 23.29 158.872C22.8233 158.872 22.4547 159.157 22.184 159.726C21.9133 160.286 21.778 161.061 21.778 162.05ZM27.42 163.436V160.664H25.824C25.8987 161.112 25.936 161.574 25.936 162.05C25.936 162.526 25.8987 162.988 25.824 163.436H27.42ZM35.3583 160.006C35.6757 161.07 35.8343 162.05 35.8343 162.946C35.8343 163.842 35.6757 164.822 35.3583 165.886C35.041 166.95 34.635 167.879 34.1403 168.672H32.8663C33.4263 167.907 33.8837 166.992 34.2383 165.928C34.593 164.855 34.7703 163.861 34.7703 162.946C34.7703 162.031 34.593 161.042 34.2383 159.978C33.8837 158.905 33.4263 157.985 32.8663 157.22H34.1403C34.635 158.013 35.041 158.942 35.3583 160.006ZM44.6869 157.36V158.536C44.6869 159.376 44.9576 160.151 45.4989 160.86C46.0496 161.569 46.7729 162.083 47.6689 162.4L47.0249 163.352C46.3623 163.1 45.7836 162.736 45.2889 162.26C44.7943 161.784 44.4069 161.233 44.1269 160.608C43.8656 161.327 43.4736 161.957 42.9509 162.498C42.4283 163.03 41.8029 163.431 41.0749 163.702L40.4169 162.736C41.3596 162.4 42.1063 161.854 42.6569 161.098C43.2076 160.333 43.4829 159.488 43.4829 158.564V157.36H44.6869ZM42.2929 164.5H50.0629V168.896H42.2929V164.5ZM48.8729 167.916V165.452H43.4829V167.916H48.8729ZM48.8449 156.744H50.0629V159.768H51.8689V160.762H50.0629V163.926H48.8449V156.744ZM61.3612 158.914V156.744H62.5792V164.332H61.3612V162.12H59.4292V161.112H61.3612V159.88H59.4292V158.914H61.3612ZM52.4572 162.624C53.1106 162.624 53.6146 162.619 53.9692 162.61V158.648H52.7932V157.64H59.2752V158.648H58.0852V162.47C58.4959 162.433 59.0092 162.381 59.6252 162.316L59.6952 163.226C58.6499 163.394 57.5392 163.506 56.3632 163.562C55.1872 163.609 53.9272 163.632 52.5832 163.632L52.4572 162.624ZM54.4032 166.796C54.4032 166.096 54.7626 165.55 55.4812 165.158C56.2092 164.766 57.2219 164.57 58.5192 164.57C59.8072 164.57 60.8152 164.766 61.5432 165.158C62.2712 165.55 62.6352 166.096 62.6352 166.796C62.6352 167.496 62.2712 168.042 61.5432 168.434C60.8152 168.835 59.8072 169.036 58.5192 169.036C57.2312 169.036 56.2232 168.84 55.4952 168.448C54.7672 168.056 54.4032 167.505 54.4032 166.796ZM55.1592 162.596C55.9432 162.577 56.5266 162.559 56.9092 162.54V158.648H55.1592V162.596ZM55.5932 166.796C55.5932 167.207 55.8499 167.529 56.3632 167.762C56.8766 167.995 57.5952 168.112 58.5192 168.112C59.4339 168.112 60.1479 167.995 60.6612 167.762C61.1746 167.529 61.4312 167.207 61.4312 166.796C61.4312 166.395 61.1746 166.082 60.6612 165.858C60.1479 165.634 59.4339 165.522 58.5192 165.522C57.5952 165.522 56.8766 165.634 56.3632 165.858C55.8499 166.082 55.5932 166.395 55.5932 166.796ZM69.3696 162.778V161.42H65.8136V157.304H74.1576V158.284H67.0036V160.44H74.2416V161.42H70.5596V162.778H75.5436V163.758H64.4136V162.778H69.3696ZM65.7296 166.824C65.7296 166.124 66.1029 165.583 66.8496 165.2C67.5962 164.808 68.6322 164.612 69.9576 164.612C71.2829 164.612 72.3189 164.808 73.0656 165.2C73.8122 165.583 74.1856 166.124 74.1856 166.824C74.1856 167.533 73.8122 168.079 73.0656 168.462C72.3189 168.854 71.2829 169.05 69.9576 169.05C68.6229 169.05 67.5822 168.854 66.8356 168.462C66.0982 168.079 65.7296 167.533 65.7296 166.824ZM66.9476 166.824C66.9476 167.244 67.2089 167.566 67.7316 167.79C68.2636 168.005 69.0056 168.112 69.9576 168.112C70.9096 168.112 71.6469 168.005 72.1696 167.79C72.6922 167.566 72.9536 167.244 72.9536 166.824C72.9536 166.423 72.6922 166.11 72.1696 165.886C71.6469 165.662 70.9096 165.55 69.9576 165.55C69.0056 165.55 68.2636 165.662 67.7316 165.886C67.2089 166.11 66.9476 166.423 66.9476 166.824ZM82.8865 167.09C83.5491 167.09 84.0905 166.875 84.5105 166.446C84.9305 166.017 85.1405 165.461 85.1405 164.78C85.1405 164.099 84.9305 163.543 84.5105 163.114C84.0905 162.675 83.5491 162.456 82.8865 162.456C82.2425 162.456 81.7105 162.675 81.2905 163.114C80.8798 163.543 80.6745 164.099 80.6745 164.78C80.6745 165.461 80.8798 166.017 81.2905 166.446C81.7105 166.875 82.2425 167.09 82.8865 167.09ZM79.5125 164.78C79.5125 164.155 79.6898 163.52 80.0445 162.876L82.8865 157.864H84.2305L82.1445 161.504C82.4805 161.448 82.7371 161.42 82.9145 161.42C83.5771 161.42 84.1651 161.565 84.6785 161.854C85.1918 162.134 85.5885 162.531 85.8685 163.044C86.1578 163.548 86.3025 164.127 86.3025 164.78C86.3025 165.424 86.1578 166.003 85.8685 166.516C85.5791 167.02 85.1778 167.417 84.6645 167.706C84.1511 167.986 83.5678 168.126 82.9145 168.126C82.2518 168.126 81.6638 167.986 81.1505 167.706C80.6371 167.417 80.2358 167.02 79.9465 166.516C79.6571 166.003 79.5125 165.424 79.5125 164.78ZM90.8636 167.132C91.5076 167.132 92.0303 166.945 92.4316 166.572C92.8423 166.199 93.0476 165.718 93.0476 165.13C93.0476 164.561 92.8423 164.094 92.4316 163.73C92.0303 163.366 91.5076 163.184 90.8636 163.184C90.229 163.184 89.7063 163.366 89.2956 163.73C88.885 164.094 88.6796 164.561 88.6796 165.13C88.6796 165.718 88.885 166.199 89.2956 166.572C89.7063 166.945 90.229 167.132 90.8636 167.132ZM87.5176 165.116C87.5176 164.677 87.6716 164.229 87.9796 163.772C88.2876 163.305 88.6843 162.937 89.1696 162.666C88.759 162.386 88.423 162.045 88.1616 161.644C87.9096 161.233 87.7836 160.846 87.7836 160.482C87.7836 159.941 87.9143 159.46 88.1756 159.04C88.437 158.62 88.801 158.293 89.2676 158.06C89.7343 157.817 90.2663 157.696 90.8636 157.696C91.461 157.696 91.993 157.817 92.4596 158.06C92.9356 158.293 93.3043 158.62 93.5656 159.04C93.827 159.46 93.9576 159.941 93.9576 160.482C93.9576 160.846 93.827 161.233 93.5656 161.644C93.3136 162.055 92.9823 162.395 92.5716 162.666C93.057 162.946 93.4536 163.315 93.7616 163.772C94.0696 164.229 94.2236 164.677 94.2236 165.116C94.2236 165.704 94.079 166.231 93.7896 166.698C93.5096 167.155 93.113 167.515 92.5996 167.776C92.0956 168.028 91.517 168.154 90.8636 168.154C90.2196 168.154 89.641 168.028 89.1276 167.776C88.6236 167.515 88.227 167.155 87.9376 166.698C87.6576 166.231 87.5176 165.704 87.5176 165.116ZM88.9596 160.468C88.9596 160.963 89.137 161.369 89.4916 161.686C89.8463 162.003 90.3036 162.162 90.8636 162.162C91.433 162.162 91.895 162.003 92.2496 161.686C92.6136 161.369 92.7956 160.963 92.7956 160.468C92.7956 159.955 92.6136 159.535 92.2496 159.208C91.895 158.881 91.433 158.718 90.8636 158.718C90.3036 158.718 89.8463 158.881 89.4916 159.208C89.137 159.535 88.9596 159.955 88.9596 160.468ZM98.7171 168.014H97.5551V159.18L95.9031 160.244L95.3291 159.32L97.5551 157.892H98.7171V168.014ZM101.275 169.666H100.407L100.869 166.866H102.101L101.275 169.666ZM117.413 156.73V169.05H116.251V156.73H117.413ZM106.787 165.718C107.618 165.205 108.262 164.444 108.719 163.436C109.186 162.428 109.419 161.345 109.419 160.188V159.152H107.123V158.144H112.737V159.152H110.595V160.188C110.595 161.289 110.819 162.321 111.267 163.282C111.715 164.234 112.35 164.953 113.171 165.438L112.443 166.32C111.874 165.975 111.384 165.499 110.973 164.892C110.563 164.276 110.245 163.576 110.021 162.792C109.797 163.641 109.475 164.397 109.055 165.06C108.635 165.723 108.127 166.241 107.529 166.614L106.787 165.718ZM111.813 161.14H113.787V157.01H114.921V168.434H113.787V162.134H111.813V161.14ZM130.056 163.73V164.724H125.058V169.064H123.854V164.724H118.912V163.73H130.056ZM119.556 161.77C120.302 161.667 120.998 161.457 121.642 161.14C122.295 160.813 122.818 160.417 123.21 159.95C123.602 159.474 123.798 158.984 123.798 158.48V158.466H119.948V157.486H128.978V158.466H125.156V158.48C125.156 158.984 125.352 159.474 125.744 159.95C126.136 160.417 126.658 160.813 127.312 161.14C127.965 161.457 128.665 161.667 129.412 161.77L128.95 162.75C127.951 162.582 127.046 162.255 126.234 161.77C125.431 161.275 124.848 160.673 124.484 159.964C124.11 160.673 123.522 161.275 122.72 161.77C121.917 162.255 121.016 162.582 120.018 162.75L119.556 161.77ZM137.174 157.458C137.678 157.458 138.145 157.551 138.574 157.738C139.004 157.915 139.363 158.167 139.652 158.494H142.746V156.744H143.964V164.01H142.746V162.316H139.638C139.349 162.643 138.99 162.895 138.56 163.072C138.14 163.249 137.678 163.338 137.174 163.338C136.577 163.338 136.036 163.212 135.55 162.96C135.065 162.708 134.682 162.358 134.402 161.91C134.122 161.462 133.982 160.958 133.982 160.398C133.982 159.838 134.122 159.334 134.402 158.886C134.682 158.438 135.065 158.088 135.55 157.836C136.036 157.584 136.577 157.458 137.174 157.458ZM135.144 160.398C135.144 160.958 135.336 161.415 135.718 161.77C136.101 162.125 136.586 162.302 137.174 162.302C137.762 162.302 138.243 162.125 138.616 161.77C138.999 161.415 139.19 160.958 139.19 160.398C139.19 159.838 138.999 159.381 138.616 159.026C138.243 158.671 137.762 158.494 137.174 158.494C136.586 158.494 136.101 158.671 135.718 159.026C135.336 159.381 135.144 159.838 135.144 160.398ZM135.774 166.67C135.774 165.923 136.138 165.345 136.866 164.934C137.604 164.514 138.612 164.304 139.89 164.304C141.169 164.304 142.172 164.514 142.9 164.934C143.638 165.345 144.006 165.923 144.006 166.67C144.006 167.417 143.638 167.995 142.9 168.406C142.172 168.826 141.169 169.036 139.89 169.036C138.612 169.036 137.604 168.826 136.866 168.406C136.138 167.995 135.774 167.417 135.774 166.67ZM136.964 166.67C136.964 167.118 137.221 167.468 137.734 167.72C138.257 167.963 138.976 168.084 139.89 168.084C140.814 168.084 141.533 167.963 142.046 167.72C142.56 167.468 142.816 167.118 142.816 166.67C142.816 166.222 142.56 165.877 142.046 165.634C141.533 165.382 140.814 165.256 139.89 165.256C138.976 165.256 138.257 165.382 137.734 165.634C137.221 165.877 136.964 166.222 136.964 166.67ZM142.746 161.322V159.474H140.212C140.306 159.782 140.352 160.09 140.352 160.398C140.352 160.706 140.306 161.014 140.212 161.322H142.746ZM154.689 158.914V156.744H155.907V164.332H154.689V162.12H152.757V161.112H154.689V159.88H152.757V158.914H154.689ZM145.785 162.624C146.438 162.624 146.942 162.619 147.297 162.61V158.648H146.121V157.64H152.603V158.648H151.413V162.47C151.823 162.433 152.337 162.381 152.953 162.316L153.023 163.226C151.977 163.394 150.867 163.506 149.691 163.562C148.515 163.609 147.255 163.632 145.911 163.632L145.785 162.624ZM147.731 166.796C147.731 166.096 148.09 165.55 148.809 165.158C149.537 164.766 150.549 164.57 151.847 164.57C153.135 164.57 154.143 164.766 154.871 165.158C155.599 165.55 155.963 166.096 155.963 166.796C155.963 167.496 155.599 168.042 154.871 168.434C154.143 168.835 153.135 169.036 151.847 169.036C150.559 169.036 149.551 168.84 148.823 168.448C148.095 168.056 147.731 167.505 147.731 166.796ZM148.487 162.596C149.271 162.577 149.854 162.559 150.237 162.54V158.648H148.487V162.596ZM148.921 166.796C148.921 167.207 149.177 167.529 149.691 167.762C150.204 167.995 150.923 168.112 151.847 168.112C152.761 168.112 153.475 167.995 153.989 167.762C154.502 167.529 154.759 167.207 154.759 166.796C154.759 166.395 154.502 166.082 153.989 165.858C153.475 165.634 152.761 165.522 151.847 165.522C150.923 165.522 150.204 165.634 149.691 165.858C149.177 166.082 148.921 166.395 148.921 166.796ZM162.697 162.778V161.42H159.141V157.304H167.485V158.284H160.331V160.44H167.569V161.42H163.887V162.778H168.871V163.758H157.741V162.778H162.697ZM159.057 166.824C159.057 166.124 159.43 165.583 160.177 165.2C160.924 164.808 161.96 164.612 163.285 164.612C164.61 164.612 165.646 164.808 166.393 165.2C167.14 165.583 167.513 166.124 167.513 166.824C167.513 167.533 167.14 168.079 166.393 168.462C165.646 168.854 164.61 169.05 163.285 169.05C161.95 169.05 160.91 168.854 160.163 168.462C159.426 168.079 159.057 167.533 159.057 166.824ZM160.275 166.824C160.275 167.244 160.536 167.566 161.059 167.79C161.591 168.005 162.333 168.112 163.285 168.112C164.237 168.112 164.974 168.005 165.497 167.79C166.02 167.566 166.281 167.244 166.281 166.824C166.281 166.423 166.02 166.11 165.497 165.886C164.974 165.662 164.237 165.55 163.285 165.55C162.333 165.55 161.591 165.662 161.059 165.886C160.536 166.11 160.275 166.423 160.275 166.824ZM172.952 166.992C173.335 166.619 173.736 166.245 174.156 165.872C174.968 165.135 175.621 164.509 176.116 163.996C176.62 163.483 177.045 162.96 177.39 162.428C177.745 161.896 177.922 161.401 177.922 160.944C177.922 160.319 177.74 159.81 177.376 159.418C177.021 159.017 176.559 158.816 175.99 158.816C175.57 158.816 175.164 158.956 174.772 159.236C174.389 159.516 174.1 159.88 173.904 160.328L172.854 159.866C173.125 159.25 173.554 158.746 174.142 158.354C174.73 157.962 175.346 157.766 175.99 157.766C176.587 157.766 177.119 157.901 177.586 158.172C178.062 158.443 178.431 158.821 178.692 159.306C178.953 159.782 179.084 160.328 179.084 160.944C179.084 161.551 178.893 162.171 178.51 162.806C178.127 163.431 177.665 164.019 177.124 164.57C176.592 165.121 175.906 165.774 175.066 166.53L174.562 166.992H179.252V168.028H173.092L172.952 166.992ZM183.752 168.014H182.59V159.18L180.938 160.244L180.364 159.32L182.59 157.892H183.752V168.014ZM188.956 167.132C189.6 167.132 190.123 166.945 190.524 166.572C190.935 166.199 191.14 165.718 191.14 165.13C191.14 164.561 190.935 164.094 190.524 163.73C190.123 163.366 189.6 163.184 188.956 163.184C188.321 163.184 187.799 163.366 187.388 163.73C186.977 164.094 186.772 164.561 186.772 165.13C186.772 165.718 186.977 166.199 187.388 166.572C187.799 166.945 188.321 167.132 188.956 167.132ZM185.61 165.116C185.61 164.677 185.764 164.229 186.072 163.772C186.38 163.305 186.777 162.937 187.262 162.666C186.851 162.386 186.515 162.045 186.254 161.644C186.002 161.233 185.876 160.846 185.876 160.482C185.876 159.941 186.007 159.46 186.268 159.04C186.529 158.62 186.893 158.293 187.36 158.06C187.827 157.817 188.359 157.696 188.956 157.696C189.553 157.696 190.085 157.817 190.552 158.06C191.028 158.293 191.397 158.62 191.658 159.04C191.919 159.46 192.05 159.941 192.05 160.482C192.05 160.846 191.919 161.233 191.658 161.644C191.406 162.055 191.075 162.395 190.664 162.666C191.149 162.946 191.546 163.315 191.854 163.772C192.162 164.229 192.316 164.677 192.316 165.116C192.316 165.704 192.171 166.231 191.882 166.698C191.602 167.155 191.205 167.515 190.692 167.776C190.188 168.028 189.609 168.154 188.956 168.154C188.312 168.154 187.733 168.028 187.22 167.776C186.716 167.515 186.319 167.155 186.03 166.698C185.75 166.231 185.61 165.704 185.61 165.116ZM187.052 160.468C187.052 160.963 187.229 161.369 187.584 161.686C187.939 162.003 188.396 162.162 188.956 162.162C189.525 162.162 189.987 162.003 190.342 161.686C190.706 161.369 190.888 160.963 190.888 160.468C190.888 159.955 190.706 159.535 190.342 159.208C189.987 158.881 189.525 158.718 188.956 158.718C188.396 158.718 187.939 158.881 187.584 159.208C187.229 159.535 187.052 159.955 187.052 160.468ZM196.809 168.014H195.647V159.18L193.995 160.244L193.421 159.32L195.647 157.892H196.809V168.014Z" fill="#A8A8A8"/>
<path d="M28.912 208.56V209.712H25.664V211.36C25.664 212.139 25.8293 212.912 26.16 213.68C26.4907 214.448 26.9387 215.131 27.504 215.728C28.0693 216.315 28.6987 216.757 29.392 217.056L28.608 218.16C27.7973 217.787 27.072 217.227 26.432 216.48C25.8027 215.733 25.3227 214.885 24.992 213.936C24.6613 214.96 24.176 215.883 23.536 216.704C22.9067 217.515 22.1867 218.117 21.376 218.512L20.576 217.408C21.2587 217.088 21.8827 216.608 22.448 215.968C23.0133 215.317 23.456 214.587 23.776 213.776C24.1067 212.965 24.272 212.16 24.272 211.36V209.712H21.04V208.56H28.912ZM30.736 207.136H32.128V221.216H30.736V207.136ZM45.8724 216.192V221.216H44.4804V217.296H36.4484V216.192H45.8724ZM34.4644 211.312C34.4644 210.661 34.619 210.08 34.9284 209.568C35.2484 209.045 35.6857 208.64 36.2404 208.352C36.8057 208.064 37.4297 207.92 38.1124 207.92C38.7097 207.92 39.2537 208.032 39.7444 208.256C40.2457 208.469 40.6617 208.773 40.9924 209.168H44.4804V207.136H45.8724V215.424H44.4804V213.456H40.9924C40.6617 213.851 40.2457 214.16 39.7444 214.384C39.243 214.597 38.699 214.704 38.1124 214.704C37.4297 214.704 36.811 214.56 36.2564 214.272C35.7017 213.984 35.2644 213.584 34.9444 213.072C34.6244 212.549 34.4644 211.963 34.4644 211.312ZM35.7764 211.312C35.7764 211.963 35.995 212.496 36.4324 212.912C36.8804 213.317 37.4404 213.52 38.1124 213.52C38.7737 213.52 39.323 213.317 39.7604 212.912C40.1977 212.496 40.4164 211.963 40.4164 211.312C40.4164 210.672 40.1977 210.144 39.7604 209.728C39.323 209.312 38.7737 209.104 38.1124 209.104C37.4404 209.104 36.8804 209.312 36.4324 209.728C35.995 210.144 35.7764 210.672 35.7764 211.312ZM44.4804 212.32V210.304H41.6004C41.6964 210.624 41.7444 210.96 41.7444 211.312C41.7444 211.664 41.6964 212 41.6004 212.32H44.4804ZM59.5368 207.136V215.44H58.1448V213.296H55.0248V214.48H48.5768V208.176H55.0248V209.376H58.1448V207.136H59.5368ZM53.6648 213.376V209.296H49.9368V213.376H53.6648ZM50.1768 218.528C50.1768 217.685 50.5928 217.029 51.4248 216.56C52.2674 216.091 53.4194 215.856 54.8808 215.856C56.3421 215.856 57.4941 216.091 58.3368 216.56C59.1794 217.029 59.6008 217.685 59.6008 218.528C59.6008 219.371 59.1794 220.021 58.3368 220.48C57.5048 220.949 56.3528 221.184 54.8808 221.184C53.4088 221.184 52.2568 220.949 51.4248 220.48C50.5928 220.021 50.1768 219.371 50.1768 218.528ZM51.5528 218.528C51.5528 219.019 51.8461 219.408 52.4328 219.696C53.0194 219.973 53.8354 220.112 54.8808 220.112C55.9261 220.112 56.7421 219.973 57.3288 219.696C57.9154 219.419 58.2088 219.029 58.2088 218.528C58.2088 218.027 57.9154 217.637 57.3288 217.36C56.7528 217.083 55.9368 216.944 54.8808 216.944C53.8354 216.944 53.0194 217.083 52.4328 217.36C51.8461 217.637 51.5528 218.027 51.5528 218.528ZM58.1448 212.176V210.496H55.0248V212.176H58.1448ZM63.2011 217.584C62.8385 216.357 62.6571 215.237 62.6571 214.224C62.6571 213.211 62.8385 212.096 63.2011 210.88C63.5638 209.653 64.0331 208.587 64.6091 207.68H66.0651C65.4145 208.565 64.8865 209.616 64.4811 210.832C64.0758 212.048 63.8731 213.179 63.8731 214.224C63.8731 215.269 64.0758 216.4 64.4811 217.616C64.8865 218.832 65.4145 219.883 66.0651 220.768H64.6091C64.0331 219.861 63.5638 218.8 63.2011 217.584ZM73.0705 214.032V212.48H69.0065V207.776H78.5425V208.896H70.3665V211.36H78.6385V212.48H74.4305V214.032H80.1265V215.152H67.4065V214.032H73.0705ZM68.9105 218.656C68.9105 217.856 69.3372 217.237 70.1905 216.8C71.0438 216.352 72.2278 216.128 73.7425 216.128C75.2572 216.128 76.4412 216.352 77.2945 216.8C78.1478 217.237 78.5745 217.856 78.5745 218.656C78.5745 219.467 78.1478 220.091 77.2945 220.528C76.4412 220.976 75.2572 221.2 73.7425 221.2C72.2172 221.2 71.0278 220.976 70.1745 220.528C69.3318 220.091 68.9105 219.467 68.9105 218.656ZM70.3025 218.656C70.3025 219.136 70.6012 219.504 71.1985 219.76C71.8065 220.005 72.6545 220.128 73.7425 220.128C74.8305 220.128 75.6732 220.005 76.2705 219.76C76.8678 219.504 77.1665 219.136 77.1665 218.656C77.1665 218.197 76.8678 217.84 76.2705 217.584C75.6732 217.328 74.8305 217.2 73.7425 217.2C72.6545 217.2 71.8065 217.328 71.1985 217.584C70.6012 217.84 70.3025 218.197 70.3025 218.656ZM82.5269 220.816H81.1829L84.5589 207.728H85.8869L82.5269 220.816ZM98.8029 207.104V221.232H97.4109V207.104H98.8029ZM88.0029 208.432H94.5309V213.504H89.4269V216.688C90.6429 216.688 91.7735 216.651 92.8189 216.576C93.8749 216.501 94.9789 216.373 96.1309 216.192L96.2749 217.328C95.1015 217.52 93.9709 217.653 92.8829 217.728C91.7949 217.792 90.5735 217.824 89.2189 217.824H88.0349V212.384H93.1389V209.552H88.0029V208.432ZM104.179 210.864C104.542 212.08 104.723 213.2 104.723 214.224C104.723 215.248 104.542 216.368 104.179 217.584C103.817 218.8 103.353 219.861 102.787 220.768H101.331C101.971 219.893 102.494 218.848 102.899 217.632C103.305 216.405 103.507 215.269 103.507 214.224C103.507 213.179 103.305 212.048 102.899 210.832C102.494 209.605 101.971 208.555 101.331 207.68H102.787C103.353 208.587 103.817 209.648 104.179 210.864ZM115.881 213.44H119.913V214.752H115.881V218.768H114.585V214.752H110.553V213.44H114.585V209.408H115.881V213.44ZM136.282 207.12V217.504H134.89V212.576H131.946V211.424H134.89V207.12H136.282ZM124.874 214.832C126.495 214.299 127.802 213.557 128.794 212.608C129.796 211.648 130.367 210.56 130.506 209.344H125.594V208.208H131.994C131.994 210 131.412 211.573 130.25 212.928C129.098 214.272 127.503 215.28 125.466 215.952L124.874 214.832ZM127.338 216.464H128.746V219.776H136.634V220.896H127.338V216.464ZM151.066 213.024V214.144H145.386V215.44H149.434V218.656H141.258V219.984H149.866V221.056H139.914V217.664H148.09V216.496H139.866V215.44H143.994V214.144H138.346V213.024H151.066ZM139.994 207.6H149.418V211.888H139.994V207.6ZM148.058 210.8V208.688H141.354V210.8H148.058ZM163.61 207.136V215.44H162.218V213.296H159.098V214.48H152.65V208.176H159.098V209.376H162.218V207.136H163.61ZM157.738 213.376V209.296H154.01V213.376H157.738ZM154.25 218.528C154.25 217.685 154.666 217.029 155.498 216.56C156.341 216.091 157.493 215.856 158.954 215.856C160.416 215.856 161.568 216.091 162.41 216.56C163.253 217.029 163.674 217.685 163.674 218.528C163.674 219.371 163.253 220.021 162.41 220.48C161.578 220.949 160.426 221.184 158.954 221.184C157.482 221.184 156.33 220.949 155.498 220.48C154.666 220.021 154.25 219.371 154.25 218.528ZM155.626 218.528C155.626 219.019 155.92 219.408 156.506 219.696C157.093 219.973 157.909 220.112 158.954 220.112C160 220.112 160.816 219.973 161.402 219.696C161.989 219.419 162.282 219.029 162.282 218.528C162.282 218.027 161.989 217.637 161.402 217.36C160.826 217.083 160.01 216.944 158.954 216.944C157.909 216.944 157.093 217.083 156.506 217.36C155.92 217.637 155.626 218.027 155.626 218.528ZM162.218 212.176V210.496H159.098V212.176H162.218ZM167.275 217.584C166.912 216.357 166.731 215.237 166.731 214.224C166.731 213.211 166.912 212.096 167.275 210.88C167.638 209.653 168.107 208.587 168.683 207.68H170.139C169.488 208.565 168.96 209.616 168.555 210.832C168.15 212.048 167.947 213.179 167.947 214.224C167.947 215.269 168.15 216.4 168.555 217.616C168.96 218.832 169.488 219.883 170.139 220.768H168.683C168.107 219.861 167.638 218.8 167.275 217.584ZM175.224 208.192C175.907 208.192 176.515 208.395 177.048 208.8C177.592 209.205 178.014 209.781 178.312 210.528C178.611 211.264 178.76 212.128 178.76 213.12C178.76 214.101 178.611 214.965 178.312 215.712C178.014 216.459 177.592 217.035 177.048 217.44C176.515 217.845 175.907 218.048 175.224 218.048C174.531 218.048 173.912 217.845 173.368 217.44C172.835 217.035 172.414 216.459 172.104 215.712C171.806 214.965 171.656 214.101 171.656 213.12C171.656 212.128 171.806 211.264 172.104 210.528C172.414 209.781 172.835 209.205 173.368 208.8C173.912 208.395 174.531 208.192 175.224 208.192ZM172.984 213.12C172.984 213.867 173.075 214.517 173.256 215.072C173.448 215.627 173.715 216.059 174.056 216.368C174.398 216.667 174.787 216.816 175.224 216.816C175.662 216.816 176.046 216.667 176.376 216.368C176.718 216.059 176.979 215.627 177.16 215.072C177.352 214.507 177.448 213.856 177.448 213.12C177.448 212.384 177.352 211.739 177.16 211.184C176.979 210.619 176.718 210.187 176.376 209.888C176.046 209.589 175.662 209.44 175.224 209.44C174.787 209.44 174.398 209.589 174.056 209.888C173.715 210.187 173.448 210.619 173.256 211.184C173.075 211.739 172.984 212.384 172.984 213.12ZM180.936 207.136H182.328V212.72H184.6V213.872H182.328V221.216H180.936V207.136ZM193.145 208.624V209.744H191.657V216.4C192.393 216.347 193.091 216.283 193.753 216.208L193.833 217.232C192.531 217.445 191.155 217.589 189.705 217.664C188.265 217.728 186.739 217.76 185.129 217.76L184.969 216.592C185.747 216.592 186.35 216.587 186.777 216.576V209.744H185.305V208.624H193.145ZM188.137 216.56C189.107 216.539 189.833 216.512 190.313 216.48V209.744H188.137V216.56ZM194.585 207.136H195.977V212.72H198.249V213.872H195.977V221.216H194.585V207.136ZM209.977 208.304V209.424H201.817V211.44H209.657V212.544H201.817V214.656H210.105V215.792H200.409V208.304H209.977ZM198.793 218.272H211.545V219.408H198.793V218.272ZM224.057 207.136V215.44H222.665V213.296H219.545V214.48H213.097V208.176H219.545V209.376H222.665V207.136H224.057ZM218.185 213.376V209.296H214.457V213.376H218.185ZM214.697 218.528C214.697 217.685 215.113 217.029 215.945 216.56C216.788 216.091 217.94 215.856 219.401 215.856C220.863 215.856 222.015 216.091 222.857 216.56C223.7 217.029 224.121 217.685 224.121 218.528C224.121 219.371 223.7 220.021 222.857 220.48C222.025 220.949 220.873 221.184 219.401 221.184C217.929 221.184 216.777 220.949 215.945 220.48C215.113 220.021 214.697 219.371 214.697 218.528ZM216.073 218.528C216.073 219.019 216.367 219.408 216.953 219.696C217.54 219.973 218.356 220.112 219.401 220.112C220.447 220.112 221.263 219.973 221.849 219.696C222.436 219.419 222.729 219.029 222.729 218.528C222.729 218.027 222.436 217.637 221.849 217.36C221.273 217.083 220.457 216.944 219.401 216.944C218.356 216.944 217.54 217.083 216.953 217.36C216.367 217.637 216.073 218.027 216.073 218.528ZM222.665 212.176V210.496H219.545V212.176H222.665ZM229.402 210.864C229.764 212.08 229.946 213.2 229.946 214.224C229.946 215.248 229.764 216.368 229.402 217.584C229.039 218.8 228.575 219.861 228.01 220.768H226.554C227.194 219.893 227.716 218.848 228.122 217.632C228.527 216.405 228.73 215.269 228.73 214.224C228.73 213.179 228.527 212.048 228.122 210.832C227.716 209.605 227.194 208.555 226.554 207.68H228.01C228.575 208.587 229.039 209.648 229.402 210.864Z" fill="#282828"/>
<path d="M21.932 243.886C21.6147 242.813 21.456 241.833 21.456 240.946C21.456 240.059 21.6147 239.084 21.932 238.02C22.2493 236.947 22.66 236.013 23.164 235.22H24.438C23.8687 235.995 23.4067 236.914 23.052 237.978C22.6973 239.042 22.52 240.031 22.52 240.946C22.52 241.861 22.6973 242.85 23.052 243.914C23.4067 244.978 23.8687 245.897 24.438 246.672H23.164C22.66 245.879 22.2493 244.95 21.932 243.886ZM36.0697 234.73V247.05H34.9077V234.73H36.0697ZM25.7377 240.05C25.7377 239.173 25.845 238.412 26.0597 237.768C26.2744 237.115 26.5777 236.615 26.9697 236.27C27.371 235.915 27.833 235.738 28.3557 235.738C28.8784 235.738 29.3357 235.906 29.7277 236.242C30.129 236.578 30.437 237.054 30.6517 237.67H32.4857V234.996H33.6337V246.434H32.4857V242.43H30.6517C30.437 243.046 30.129 243.527 29.7277 243.872C29.3357 244.208 28.8784 244.376 28.3557 244.376C27.833 244.376 27.371 244.203 26.9697 243.858C26.5777 243.503 26.2744 242.999 26.0597 242.346C25.845 241.693 25.7377 240.927 25.7377 240.05ZM26.8437 240.05C26.8437 241.039 26.979 241.819 27.2497 242.388C27.5204 242.957 27.889 243.242 28.3557 243.242C28.8317 243.242 29.2097 242.957 29.4897 242.388C29.7697 241.819 29.9097 241.039 29.9097 240.05C29.9097 239.061 29.7697 238.286 29.4897 237.726C29.2097 237.157 28.8317 236.872 28.3557 236.872C27.889 236.872 27.5204 237.157 27.2497 237.726C26.979 238.286 26.8437 239.061 26.8437 240.05ZM32.4857 241.436V238.664H30.8897C30.9644 239.112 31.0017 239.574 31.0017 240.05C31.0017 240.526 30.9644 240.988 30.8897 241.436H32.4857ZM41.9986 237.866C42.2039 237.866 42.3673 237.931 42.4886 238.062C42.6193 238.193 42.6846 238.356 42.6846 238.552C42.6846 238.757 42.6193 238.925 42.4886 239.056C42.3673 239.187 42.2039 239.252 41.9986 239.252C41.7933 239.252 41.6253 239.187 41.4946 239.056C41.3639 238.925 41.2986 238.757 41.2986 238.552C41.2986 238.356 41.3639 238.193 41.4946 238.062C41.6253 237.931 41.7933 237.866 41.9986 237.866ZM41.2986 243.27C41.2986 243.065 41.3639 242.901 41.4946 242.78C41.6253 242.649 41.7933 242.584 41.9986 242.584C42.2039 242.584 42.3673 242.649 42.4886 242.78C42.6193 242.901 42.6846 243.065 42.6846 243.27C42.6846 243.475 42.6193 243.643 42.4886 243.774C42.3673 243.905 42.2039 243.97 41.9986 243.97C41.7933 243.97 41.6253 243.905 41.4946 243.774C41.3639 243.643 41.2986 243.475 41.2986 243.27ZM55.3978 241.226V242.192H50.5258V244.53H49.3078V242.192H44.2398V241.226H55.3978ZM45.6398 243.438H46.8438V245.804H54.1658V246.798H45.6398V243.438ZM45.7238 235.122H46.9278V236.648H52.7238V235.122H53.9418V240.078H45.7238V235.122ZM52.7238 239.098V237.586H46.9278V239.098H52.7238ZM65.8141 234.73V237.908H67.5921V238.916H65.8141V242.038H64.5961V234.73H65.8141ZM56.7561 235.654H62.2021V236.662H57.9601V240.106C59.2015 240.106 60.2141 240.078 60.9981 240.022C61.7821 239.966 62.5615 239.863 63.3361 239.714L63.4761 240.68C62.6548 240.848 61.8288 240.96 60.9981 241.016C60.1675 241.072 59.0755 241.1 57.7221 241.1H56.7561V235.654ZM57.7921 244.67C57.7921 243.923 58.1561 243.34 58.8841 242.92C59.6121 242.491 60.6061 242.276 61.8661 242.276C63.1168 242.276 64.1061 242.491 64.8341 242.92C65.5621 243.34 65.9261 243.923 65.9261 244.67C65.9261 245.417 65.5621 245.995 64.8341 246.406C64.1155 246.826 63.1261 247.036 61.8661 247.036C60.6061 247.036 59.6121 246.826 58.8841 246.406C58.1561 245.995 57.7921 245.417 57.7921 244.67ZM58.9821 244.67C58.9821 245.099 59.2388 245.44 59.7521 245.692C60.2655 245.935 60.9701 246.056 61.8661 246.056C62.7621 246.056 63.4621 245.935 63.9661 245.692C64.4795 245.44 64.7361 245.099 64.7361 244.67C64.7361 244.222 64.4795 243.877 63.9661 243.634C63.4621 243.382 62.7621 243.256 61.8661 243.256C60.9608 243.256 60.2515 243.382 59.7381 243.634C59.2341 243.877 58.9821 244.222 58.9821 244.67ZM82.257 241.73V242.724H77.259V247.064H76.055V242.724H71.113V241.73H82.257ZM71.757 239.77C72.5037 239.667 73.199 239.457 73.843 239.14C74.4963 238.813 75.019 238.417 75.411 237.95C75.803 237.474 75.999 236.984 75.999 236.48V236.466H72.149V235.486H81.179V236.466H77.357V236.48C77.357 236.984 77.553 237.474 77.945 237.95C78.337 238.417 78.8597 238.813 79.513 239.14C80.1663 239.457 80.8664 239.667 81.613 239.77L81.151 240.75C80.1524 240.582 79.247 240.255 78.435 239.77C77.6324 239.275 77.049 238.673 76.685 237.964C76.3117 238.673 75.7237 239.275 74.921 239.77C74.1183 240.255 73.2177 240.582 72.219 240.75L71.757 239.77ZM88.5853 242.514C89.9107 242.514 90.9607 242.719 91.7353 243.13C92.51 243.531 92.8973 244.082 92.8973 244.782C92.8973 245.482 92.51 246.033 91.7353 246.434C90.9607 246.845 89.9107 247.05 88.5853 247.05C87.2693 247.05 86.224 246.845 85.4493 246.434C84.684 246.033 84.3013 245.482 84.3013 244.782C84.3013 244.082 84.684 243.531 85.4493 243.13C86.224 242.719 87.2693 242.514 88.5853 242.514ZM83.0833 240.456H87.5913V238.118H88.7953V240.456H94.1853V241.436H83.0833V240.456ZM84.3853 235.36H92.7853V236.396C92.7853 237.059 92.7667 237.628 92.7293 238.104C92.692 238.58 92.5987 239.098 92.4493 239.658L91.2733 239.532C91.4133 238.972 91.502 238.468 91.5393 238.02C91.5767 237.572 91.5953 237.031 91.5953 236.396V236.34H84.3853V235.36ZM85.4913 244.782C85.4913 245.193 85.7667 245.519 86.3173 245.762C86.8773 245.995 87.6333 246.112 88.5853 246.112C89.5373 246.112 90.2887 245.995 90.8393 245.762C91.3993 245.519 91.6793 245.193 91.6793 244.782C91.6793 244.362 91.3993 244.035 90.8393 243.802C90.2887 243.559 89.5373 243.438 88.5853 243.438C87.6333 243.438 86.8773 243.559 86.3173 243.802C85.7667 244.035 85.4913 244.362 85.4913 244.782ZM95.9357 247.666H95.0677L95.5297 244.866H96.7617L95.9357 247.666ZM111.766 234.744V243.83H110.548V240.568H107.496C107.207 240.932 106.843 241.212 106.404 241.408C105.975 241.604 105.499 241.702 104.976 241.702C104.379 241.702 103.837 241.571 103.352 241.31C102.867 241.049 102.484 240.685 102.204 240.218C101.933 239.742 101.798 239.21 101.798 238.622C101.798 238.025 101.933 237.488 102.204 237.012C102.484 236.536 102.867 236.167 103.352 235.906C103.837 235.645 104.379 235.514 104.976 235.514C105.489 235.514 105.961 235.612 106.39 235.808C106.829 236.004 107.193 236.279 107.482 236.634H110.548V234.744H111.766ZM102.946 238.622C102.946 239.219 103.137 239.709 103.52 240.092C103.903 240.465 104.388 240.652 104.976 240.652C105.555 240.652 106.035 240.465 106.418 240.092C106.81 239.709 107.006 239.219 107.006 238.622C107.006 238.025 106.81 237.539 106.418 237.166C106.035 236.783 105.555 236.592 104.976 236.592C104.388 236.592 103.903 236.783 103.52 237.166C103.137 237.539 102.946 238.025 102.946 238.622ZM103.856 242.892H105.074V245.804H112.102V246.784H103.856V242.892ZM108.014 237.614C108.117 237.941 108.168 238.277 108.168 238.622C108.168 238.939 108.121 239.261 108.028 239.588H110.548V237.614H108.014ZM119.788 235.164V235.85C119.788 236.391 119.989 236.914 120.39 237.418C120.801 237.922 121.342 238.351 122.014 238.706C122.696 239.051 123.419 239.28 124.184 239.392L123.694 240.358C122.705 240.19 121.8 239.854 120.978 239.35C120.157 238.846 119.55 238.235 119.158 237.516C118.776 238.244 118.174 238.86 117.352 239.364C116.531 239.859 115.616 240.19 114.608 240.358L114.118 239.392C114.893 239.28 115.616 239.051 116.288 238.706C116.96 238.361 117.497 237.936 117.898 237.432C118.309 236.928 118.514 236.401 118.514 235.85V235.164H119.788ZM113.572 241.646H124.716V242.64H119.718V247.064H118.514V242.64H113.572V241.646ZM130.499 240.778V239.42H126.943V235.304H135.287V236.284H128.133V238.44H135.371V239.42H131.689V240.778H136.673V241.758H125.543V240.778H130.499ZM126.859 244.824C126.859 244.124 127.232 243.583 127.979 243.2C128.725 242.808 129.761 242.612 131.087 242.612C132.412 242.612 133.448 242.808 134.195 243.2C134.941 243.583 135.315 244.124 135.315 244.824C135.315 245.533 134.941 246.079 134.195 246.462C133.448 246.854 132.412 247.05 131.087 247.05C129.752 247.05 128.711 246.854 127.965 246.462C127.227 246.079 126.859 245.533 126.859 244.824ZM128.077 244.824C128.077 245.244 128.338 245.566 128.861 245.79C129.393 246.005 130.135 246.112 131.087 246.112C132.039 246.112 132.776 246.005 133.299 245.79C133.821 245.566 134.083 245.244 134.083 244.824C134.083 244.423 133.821 244.11 133.299 243.886C132.776 243.662 132.039 243.55 131.087 243.55C130.135 243.55 129.393 243.662 128.861 243.886C128.338 244.11 128.077 244.423 128.077 244.824ZM151.576 241.73V242.724H146.578V247.064H145.374V242.724H140.432V241.73H151.576ZM141.076 239.77C141.822 239.667 142.518 239.457 143.162 239.14C143.815 238.813 144.338 238.417 144.73 237.95C145.122 237.474 145.318 236.984 145.318 236.48V236.466H141.468V235.486H150.498V236.466H146.676V236.48C146.676 236.984 146.872 237.474 147.264 237.95C147.656 238.417 148.178 238.813 148.832 239.14C149.485 239.457 150.185 239.667 150.932 239.77L150.47 240.75C149.471 240.582 148.566 240.255 147.754 239.77C146.951 239.275 146.368 238.673 146.004 237.964C145.63 238.673 145.042 239.275 144.24 239.77C143.437 240.255 142.536 240.582 141.538 240.75L141.076 239.77ZM157.904 242.514C159.229 242.514 160.279 242.719 161.054 243.13C161.829 243.531 162.216 244.082 162.216 244.782C162.216 245.482 161.829 246.033 161.054 246.434C160.279 246.845 159.229 247.05 157.904 247.05C156.588 247.05 155.543 246.845 154.768 246.434C154.003 246.033 153.62 245.482 153.62 244.782C153.62 244.082 154.003 243.531 154.768 243.13C155.543 242.719 156.588 242.514 157.904 242.514ZM152.402 240.456H156.91V238.118H158.114V240.456H163.504V241.436H152.402V240.456ZM153.704 235.36H162.104V236.396C162.104 237.059 162.085 237.628 162.048 238.104C162.011 238.58 161.917 239.098 161.768 239.658L160.592 239.532C160.732 238.972 160.821 238.468 160.858 238.02C160.895 237.572 160.914 237.031 160.914 236.396V236.34H153.704V235.36ZM154.81 244.782C154.81 245.193 155.085 245.519 155.636 245.762C156.196 245.995 156.952 246.112 157.904 246.112C158.856 246.112 159.607 245.995 160.158 245.762C160.718 245.519 160.998 245.193 160.998 244.782C160.998 244.362 160.718 244.035 160.158 243.802C159.607 243.559 158.856 243.438 157.904 243.438C156.952 243.438 156.196 243.559 155.636 243.802C155.085 244.035 154.81 244.362 154.81 244.782ZM169.776 240.778C170.215 241.039 170.56 241.394 170.812 241.842C171.064 242.281 171.19 242.715 171.19 243.144C171.19 243.713 171.05 244.222 170.77 244.67C170.49 245.118 170.098 245.468 169.594 245.72C169.09 245.972 168.516 246.098 167.872 246.098C167.228 246.098 166.654 245.972 166.15 245.72C165.646 245.468 165.254 245.118 164.974 244.67C164.694 244.213 164.554 243.695 164.554 243.116H165.716C165.716 243.685 165.917 244.152 166.318 244.516C166.72 244.88 167.238 245.062 167.872 245.062C168.507 245.062 169.025 244.885 169.426 244.53C169.837 244.166 170.042 243.699 170.042 243.13C170.042 242.589 169.842 242.145 169.44 241.8C169.039 241.455 168.526 241.282 167.9 241.282H167.158V240.246H167.9C168.488 240.246 168.969 240.092 169.342 239.784C169.716 239.467 169.902 239.061 169.902 238.566C169.902 238.053 169.72 237.637 169.356 237.32C168.992 236.993 168.526 236.83 167.956 236.83C167.387 236.83 166.92 236.993 166.556 237.32C166.192 237.647 166.01 238.071 166.01 238.594H164.848C164.848 238.053 164.979 237.572 165.24 237.152C165.502 236.723 165.866 236.391 166.332 236.158C166.808 235.915 167.35 235.794 167.956 235.794C168.554 235.794 169.086 235.911 169.552 236.144C170.019 236.377 170.383 236.704 170.644 237.124C170.915 237.544 171.05 238.02 171.05 238.552C171.05 238.953 170.934 239.359 170.7 239.77C170.476 240.181 170.168 240.517 169.776 240.778ZM175.139 236.858V234.968H176.343V236.858H179.045V237.824H176.343V238.706C176.343 239.35 176.465 239.989 176.707 240.624C176.959 241.259 177.309 241.833 177.757 242.346C178.215 242.85 178.733 243.247 179.311 243.536L178.639 244.46C177.977 244.133 177.393 243.662 176.889 243.046C176.395 242.43 176.017 241.73 175.755 240.946C175.485 241.786 175.088 242.537 174.565 243.2C174.043 243.853 173.436 244.348 172.745 244.684L172.059 243.76C172.666 243.471 173.203 243.065 173.669 242.542C174.136 242.01 174.5 241.413 174.761 240.75C175.023 240.078 175.153 239.397 175.153 238.706V237.824H172.395V236.858H175.139ZM180.459 234.744H181.677V239.77H183.679V240.778H181.677V247.064H180.459V234.744ZM187.012 238.006C187.329 239.07 187.488 240.05 187.488 240.946C187.488 241.842 187.329 242.822 187.012 243.886C186.694 244.95 186.288 245.879 185.794 246.672H184.52C185.08 245.907 185.537 244.992 185.892 243.928C186.246 242.855 186.424 241.861 186.424 240.946C186.424 240.031 186.246 239.042 185.892 237.978C185.537 236.905 185.08 235.985 184.52 235.22H185.794C186.288 236.013 186.694 236.942 187.012 238.006Z" fill="#A8A8A8"/>
<path d="M29.28 11.696H25.904V22.08H24.384V11.696H21.008V10.368H29.28V11.696ZM32.4491 14.544V22.08H30.9291V14.544H32.4491ZM30.8011 11.664C30.8011 11.408 30.8811 11.2 31.0411 11.04C31.2118 10.8693 31.4251 10.784 31.6811 10.784C31.9371 10.784 32.1451 10.8693 32.3051 11.04C32.4758 11.2 32.5611 11.408 32.5611 11.664C32.5611 11.92 32.4758 12.1333 32.3051 12.304C32.1451 12.464 31.9371 12.544 31.6811 12.544C31.4251 12.544 31.2118 12.464 31.0411 12.304C30.8811 12.1333 30.8011 11.92 30.8011 11.664ZM38.3211 20.864C38.9611 20.864 39.4785 20.6347 39.8731 20.176C40.2678 19.7067 40.4651 19.0933 40.4651 18.336C40.4651 17.5893 40.2678 16.9867 39.8731 16.528C39.4785 16.0587 38.9611 15.824 38.3211 15.824C37.9265 15.824 37.5585 15.9413 37.2171 16.176C36.8865 16.4 36.6198 16.704 36.4171 17.088C36.2251 17.472 36.1291 17.888 36.1291 18.336C36.1291 18.7947 36.2251 19.216 36.4171 19.6C36.6198 19.984 36.8865 20.2933 37.2171 20.528C37.5585 20.752 37.9265 20.864 38.3211 20.864ZM34.5931 14.544H36.1131V15.744C36.3691 15.36 36.7158 15.0667 37.1531 14.864C37.5905 14.6507 38.0011 14.544 38.3851 14.544C39.0785 14.544 39.6971 14.704 40.2411 15.024C40.7958 15.344 41.2225 15.792 41.5211 16.368C41.8305 16.944 41.9851 17.6 41.9851 18.336C41.9851 19.0827 41.8305 19.744 41.5211 20.32C41.2225 20.896 40.7958 21.3493 40.2411 21.68C39.6971 22 39.0785 22.16 38.3851 22.16C38.0118 22.16 37.6065 22.0533 37.1691 21.84C36.7318 21.6267 36.3798 21.3333 36.1131 20.96V25.488H34.5931V14.544Z" fill="#FF7512"/>
<path d="M58.1155 9.072V23.264H56.5315V9.072H58.1155ZM46.9475 15.104C46.9475 14.112 47.1022 13.2427 47.4115 12.496C47.7208 11.7387 48.1528 11.1573 48.7075 10.752C49.2622 10.336 49.8915 10.128 50.5955 10.128C51.2995 10.128 51.9235 10.336 52.4675 10.752C53.0222 11.1573 53.4542 11.7387 53.7635 12.496C54.0728 13.2427 54.2275 14.112 54.2275 15.104C54.2275 16.1067 54.0728 16.9867 53.7635 17.744C53.4542 18.5013 53.0222 19.088 52.4675 19.504C51.9235 19.9093 51.2995 20.112 50.5955 20.112C49.8915 20.112 49.2622 19.9093 48.7075 19.504C48.1528 19.088 47.7208 18.5013 47.4115 17.744C47.1022 16.9867 46.9475 16.1067 46.9475 15.104ZM48.4675 15.104C48.4675 16.2027 48.6595 17.0773 49.0435 17.728C49.4382 18.368 49.9555 18.688 50.5955 18.688C51.2248 18.688 51.7368 18.368 52.1315 17.728C52.5262 17.0773 52.7235 16.2027 52.7235 15.104C52.7235 14.016 52.5262 13.152 52.1315 12.512C51.7368 11.872 51.2248 11.552 50.5955 11.552C49.9555 11.552 49.4382 11.872 49.0435 12.512C48.6595 13.152 48.4675 14.016 48.4675 15.104ZM71.8599 9.088V16.816H70.2919V12.992H67.8119V11.744H70.2919V9.088H71.8599ZM60.6919 9.712H66.9959V13.376H62.2759V14.784C63.5239 14.784 64.5799 14.7573 65.4439 14.704C66.3185 14.6507 67.1985 14.5387 68.0839 14.368L68.2119 15.584C67.2412 15.7547 66.2812 15.8667 65.3319 15.92C64.3932 15.9733 63.2199 16 61.8119 16H60.7079V12.24H65.4439V10.912H60.6919V9.712ZM62.2279 17.568H66.4039V16.336H67.9719V17.568H72.1319V18.752H62.2279V17.568ZM63.2199 21.264C63.2199 20.624 63.5612 20.1333 64.2439 19.792C64.9372 19.4507 65.9185 19.28 67.1879 19.28C68.4572 19.28 69.4385 19.4507 70.1319 19.792C70.8252 20.1333 71.1719 20.624 71.1719 21.264C71.1719 21.904 70.8252 22.3893 70.1319 22.72C69.4385 23.0613 68.4572 23.232 67.1879 23.232C65.9185 23.232 64.9372 23.0613 64.2439 22.72C63.5612 22.3893 63.2199 21.904 63.2199 21.264ZM64.7239 21.264C64.7239 21.8507 65.5452 22.144 67.1879 22.144C68.8305 22.144 69.6519 21.8507 69.6519 21.264C69.6519 20.6667 68.8305 20.368 67.1879 20.368C65.5452 20.368 64.7239 20.6667 64.7239 21.264ZM85.8923 9.088V23.248H84.3883V9.088H85.8923ZM73.7323 19.12C75.1829 18.2453 76.2816 17.232 77.0283 16.08C77.7749 14.9173 78.2069 13.5947 78.3243 12.112H74.4043V10.832H79.9083C79.9083 12.2827 79.7109 13.584 79.3163 14.736H81.4283V9.424H82.9003V22.544H81.4283V16H78.7723C77.9189 17.696 76.5429 19.1093 74.6443 20.24L73.7323 19.12ZM98.0921 9.952C98.0921 11.744 97.5215 13.2693 96.3801 14.528C95.2495 15.7867 93.6441 16.7093 91.5641 17.296L90.9401 16.064C92.5508 15.616 93.8255 14.976 94.7641 14.144C95.7135 13.3013 96.2628 12.3253 96.4121 11.216H91.6921V9.952H98.0921ZM93.3401 17.68H102.556V23.056H93.3401V17.68ZM101.004 21.808V18.944H94.8921V21.808H101.004ZM98.1401 12.624H100.988V9.088H102.556V17.104H100.988V13.92H98.1401V12.624ZM108.813 9.92V11.728C108.813 12.5493 109.053 13.3173 109.533 14.032C110.013 14.7467 110.701 15.2853 111.597 15.648L110.749 16.848C110.119 16.592 109.581 16.2347 109.133 15.776C108.685 15.3173 108.333 14.7893 108.077 14.192C107.799 14.864 107.421 15.4613 106.941 15.984C106.471 16.5067 105.911 16.9173 105.261 17.216L104.413 16C105.319 15.5947 106.023 14.992 106.525 14.192C107.037 13.392 107.293 12.5707 107.293 11.728V9.92H108.813ZM106.877 18.384H116.477V23.248H114.909V19.648H106.877V18.384ZM111.949 9.328H113.437V12.688H114.973V9.104H116.477V17.664H114.973V13.968H113.437V17.584H111.949V9.328ZM120.845 11.408V9.472H122.397V11.408H125.069V12.656H118.141V11.408H120.845ZM118.557 16.768C118.557 16.1387 118.685 15.5787 118.941 15.088C119.208 14.5867 119.57 14.1973 120.029 13.92C120.498 13.6427 121.026 13.504 121.613 13.504C122.2 13.504 122.728 13.6427 123.197 13.92C123.666 14.1973 124.029 14.5867 124.285 15.088C124.552 15.5787 124.685 16.1387 124.685 16.768C124.685 17.408 124.552 17.9787 124.285 18.48C124.029 18.9813 123.666 19.3707 123.197 19.648C122.728 19.9253 122.2 20.064 121.613 20.064C121.026 20.064 120.498 19.9253 120.029 19.648C119.57 19.3707 119.208 18.9813 118.941 18.48C118.685 17.9787 118.557 17.408 118.557 16.768ZM119.949 16.768C119.949 17.3653 120.104 17.8453 120.413 18.208C120.722 18.56 121.122 18.736 121.613 18.736C122.104 18.736 122.504 18.56 122.813 18.208C123.133 17.8453 123.293 17.3653 123.293 16.768C123.293 16.192 123.133 15.7227 122.813 15.36C122.504 14.9867 122.104 14.8 121.613 14.8C121.133 14.8 120.733 14.9867 120.413 15.36C120.104 15.7227 119.949 16.192 119.949 16.768ZM125.693 9.392H127.181V14.976H128.717V9.088H130.205V23.248H128.717V16.256H127.181V22.576H125.693V9.392ZM137.453 20.208V17.328H133.293V10.048H134.845V12.432H141.629V10.048H143.181V17.328H139.005V20.208H144.669V21.504H131.837V20.208H137.453ZM141.629 16.064V13.696H134.845V16.064H141.629ZM153.182 14.032V9.376H154.654V22.56H153.182V15.328H151.07V14.032H153.182ZM145.278 19.104C146.238 18.5387 146.979 17.6907 147.502 16.56C148.024 15.4293 148.286 14.2293 148.286 12.96V10.4H149.806V12.896C149.806 14.112 150.04 15.2533 150.51 16.32C150.99 17.376 151.683 18.1867 152.59 18.752L151.694 19.968C151.075 19.584 150.542 19.0667 150.094 18.416C149.656 17.7653 149.315 17.0187 149.07 16.176C148.803 17.0933 148.43 17.9093 147.95 18.624C147.48 19.328 146.915 19.8827 146.254 20.288L145.278 19.104ZM156.062 9.088H157.566V23.248H156.062V9.088ZM162.19 20.208V16.512C161.614 16.192 161.166 15.7813 160.846 15.28C160.526 14.7787 160.366 14.2187 160.366 13.6C160.366 12.864 160.59 12.2133 161.038 11.648C161.486 11.0827 162.099 10.6507 162.878 10.352C163.667 10.0427 164.563 9.888 165.566 9.888C166.569 9.888 167.465 10.0427 168.254 10.352C169.043 10.6507 169.657 11.0827 170.094 11.648C170.542 12.2133 170.766 12.864 170.766 13.6C170.766 14.2187 170.606 14.7787 170.286 15.28C169.977 15.7707 169.534 16.1813 168.958 16.512V20.208H171.998V21.488H159.166V20.208H162.19ZM161.902 13.6C161.902 14.3573 162.238 14.96 162.91 15.408C163.593 15.8453 164.478 16.064 165.566 16.064C166.654 16.064 167.534 15.84 168.206 15.392C168.889 14.944 169.23 14.3467 169.23 13.6C169.23 12.8533 168.889 12.256 168.206 11.808C167.534 11.36 166.654 11.136 165.566 11.136C164.478 11.136 163.593 11.36 162.91 11.808C162.238 12.2453 161.902 12.8427 161.902 13.6ZM167.39 20.208V17.104C166.835 17.232 166.227 17.296 165.566 17.296C164.926 17.296 164.323 17.232 163.758 17.104V20.208H167.39ZM174.094 20.464C174.361 20.464 174.58 20.5493 174.75 20.72C174.921 20.8907 175.006 21.1093 175.006 21.376C175.006 21.6533 174.921 21.8773 174.75 22.048C174.58 22.2293 174.361 22.32 174.094 22.32C173.817 22.32 173.588 22.2293 173.406 22.048C173.236 21.8773 173.15 21.6533 173.15 21.376C173.15 21.1093 173.236 20.8907 173.406 20.72C173.588 20.5493 173.817 20.464 174.094 20.464Z" fill="#282828"/>
</svg>
