<svg width="65" height="64" viewBox="0 0 65 64" fill="none" xmlns="http://www.w3.org/2000/svg">
<circle opacity="0.7" cx="32.5" cy="32" r="31" transform="rotate(-180 32.5 32)" fill="#FFF1E7" stroke="#FFD6B8" stroke-width="2"/>
<g filter="url(#filter0_d_794_8483)">
<circle cx="32.5" cy="32" r="16" transform="rotate(-180 32.5 32)" fill="#FF7512"/>
</g>
<path d="M24.5307 23.2773C24.6911 22.8406 25.3089 22.8406 25.4693 23.2773L25.8607 24.3424C25.9113 24.4802 26.0198 24.5887 26.1576 24.6393L27.2227 25.0307C27.6594 25.1911 27.6594 25.8089 27.2227 25.9693L26.1576 26.3607C26.0198 26.4113 25.9113 26.5198 25.8607 26.6576L25.4693 27.7227C25.3089 28.1594 24.6911 28.1594 24.5307 27.7227L24.1393 26.6576C24.0887 26.5198 23.9802 26.4113 23.8424 26.3607L22.7773 25.9693C22.3406 25.8089 22.3406 25.1911 22.7773 25.0307L23.8424 24.6393C23.9802 24.5887 24.0887 24.4802 24.1393 24.3424L24.5307 23.2773Z" fill="white"/>
<path d="M24.5307 37.2773C24.6911 36.8406 25.3089 36.8406 25.4693 37.2773L25.8607 38.3424C25.9113 38.4802 26.0198 38.5887 26.1576 38.6393L27.2227 39.0307C27.6594 39.1911 27.6594 39.8089 27.2227 39.9693L26.1576 40.3607C26.0198 40.4113 25.9113 40.5198 25.8607 40.6576L25.4693 41.7227C25.3089 42.1594 24.6911 42.1594 24.5307 41.7227L24.1393 40.6576C24.0887 40.5198 23.9802 40.4113 23.8424 40.3607L22.7773 39.9693C22.3406 39.8089 22.3406 39.1911 22.7773 39.0307L23.8424 38.6393C23.9802 38.5887 24.0887 38.4802 24.1393 38.3424L24.5307 37.2773Z" fill="white"/>
<path d="M34 23.4498L36.0036 28.9027C36.1048 29.1781 36.3219 29.3952 36.5973 29.4964L42.0502 31.5L36.5973 33.5036C36.3219 33.6048 36.1048 33.8219 36.0036 34.0973L34 39.5502L31.9964 34.0973C31.8952 33.8219 31.6781 33.6048 31.4027 33.5036L25.9498 31.5L31.4027 29.4964C31.6781 29.3952 31.8952 29.1781 31.9964 28.9027L34 23.4498Z" fill="white" stroke="white"/>
<defs>
<filter id="filter0_d_794_8483" x="12.5" y="13" width="40" height="40" filterUnits="userSpaceOnUse" color-interpolation-filters="sRGB">
<feFlood flood-opacity="0" result="BackgroundImageFix"/>
<feColorMatrix in="SourceAlpha" type="matrix" values="0 0 0 0 0 0 0 0 0 0 0 0 0 0 0 0 0 0 127 0" result="hardAlpha"/>
<feOffset dy="1"/>
<feGaussianBlur stdDeviation="2"/>
<feComposite in2="hardAlpha" operator="out"/>
<feColorMatrix type="matrix" values="0 0 0 0 1 0 0 0 0 0.729412 0 0 0 0 0.537255 0 0 0 1 0"/>
<feBlend mode="normal" in2="BackgroundImageFix" result="effect1_dropShadow_794_8483"/>
<feBlend mode="normal" in="SourceGraphic" in2="effect1_dropShadow_794_8483" result="shape"/>
</filter>
</defs>
</svg>
