<svg width="13" height="12" viewBox="0 0 13 12" fill="none" xmlns="http://www.w3.org/2000/svg">
<g clip-path="url(#clip0_614_3618)">
<path fill-rule="evenodd" clip-rule="evenodd" d="M3.37089 0.00390625C3.72593 0.00390625 4.01375 0.291723 4.01375 0.646764V4.61256C4.56536 4.39185 4.94087 3.89458 4.95275 3.3217C4.97045 2.46735 4.91496 1.61419 4.78558 0.741087C4.73353 0.389882 4.97605 0.0629828 5.32726 0.010937C5.67846 -0.0411088 6.00536 0.201408 6.05741 0.552613C6.19695 1.49424 6.25745 2.41938 6.23819 3.34834C6.21196 4.61397 5.33339 5.56576 4.22803 5.89469V11.1444C4.22803 11.6178 3.84427 12.0015 3.37089 12.0015C2.8975 12.0015 2.51375 11.6178 2.51375 11.1444V5.89472C1.40833 5.56581 0.529719 4.614 0.503487 3.34834C0.484234 2.41938 0.544729 1.49424 0.684271 0.552612C0.736317 0.201408 1.06322 -0.0411089 1.41442 0.010937C1.76562 0.0629829 2.00814 0.389882 1.9561 0.741087C1.82671 1.61419 1.77122 2.46735 1.78893 3.3217C1.8008 3.89462 2.17636 4.39191 2.72803 4.6126V0.646764C2.72803 0.291723 3.01584 0.00390625 3.37089 0.00390625ZM9.82143 0.0139509C9.00144 0.0139509 8.30925 0.28909 7.83005 0.85221C7.35975 1.40485 7.14286 2.17835 7.14286 3.08651C7.14286 3.99467 7.35975 4.76817 7.83005 5.32082C8.1311 5.67459 8.51622 5.91471 8.96429 6.04434V11.1444C8.96429 11.6178 9.34803 12.0015 9.82143 12.0015C10.2948 12.0015 10.6786 11.6178 10.6786 11.1444V6.04434C11.1266 5.91471 11.5117 5.67459 11.8128 5.32082C12.2831 4.76817 12.5 3.99467 12.5 3.08651C12.5 2.17835 12.2831 1.40485 11.8128 0.85221C11.3336 0.28909 10.6414 0.0139509 9.82143 0.0139509Z" fill="white"/>
</g>
<defs>
<clipPath id="clip0_614_3618">
<rect width="12" height="12" fill="white" transform="translate(0.5)"/>
</clipPath>
</defs>
</svg>
